<svg width="18" height="18" viewBox="0 0 18 18" fill="none" xmlns="http://www.w3.org/2000/svg">
<path d="M9 1C7.41775 1 5.87103 1.46919 4.55544 2.34824C3.23985 3.22729 2.21447 4.47672 1.60897 5.93853C1.00347 7.40034 0.84504 9.00887 1.15372 10.5607C1.4624 12.1126 2.22433 13.538 3.34315 14.6569C4.46197 15.7757 5.88743 16.5376 7.43928 16.8463C8.99113 17.155 10.5997 16.9965 12.0615 16.391C13.5233 15.7855 14.7727 14.7602 15.6518 13.4446C16.5308 12.129 17 10.5822 17 9C16.9978 6.87895 16.1542 4.84542 14.6544 3.34562C13.1546 1.84581 11.121 1.00224 9 1ZM2.23077 9C2.23281 7.20531 2.94665 5.48471 4.21568 4.21568C5.48472 2.94664 7.20532 2.2328 9 2.23077V15.7692C7.20532 15.7672 5.48472 15.0534 4.21568 13.7843C2.94665 12.5153 2.23281 10.7947 2.23077 9Z" fill="#F6C985"/>
</svg>
