<svg width="25" height="25" viewBox="0 0 25 25" fill="none" xmlns="http://www.w3.org/2000/svg">
<path d="M10.4167 21.875H14.5833C14.5833 23.0208 13.6458 23.9583 12.5 23.9583C11.3542 23.9583 10.4167 23.0208 10.4167 21.875ZM21.875 19.7917V20.8333H3.125V19.7917L5.20833 17.7083V11.4583C5.20833 8.22918 7.29167 5.41668 10.4167 4.47918V4.16668C10.4167 3.02084 11.3542 2.08334 12.5 2.08334C13.6458 2.08334 14.5833 3.02084 14.5833 4.16668V4.47918C17.7083 5.41668 19.7917 8.22918 19.7917 11.4583V17.7083L21.875 19.7917ZM17.7083 11.4583C17.7083 8.54168 15.4167 6.25001 12.5 6.25001C9.58333 6.25001 7.29167 8.54168 7.29167 11.4583V18.75H17.7083V11.4583Z" fill="black"/>
</svg>
