<svg width="1866" height="828" viewBox="0 0 1866 828" fill="none" xmlns="http://www.w3.org/2000/svg">
<mask id="mask0_303_7910" style="mask-type:luminance" maskUnits="userSpaceOnUse" x="0" y="0" width="1866" height="828">
<path d="M0 0H1865.16V827.984H0V0Z" fill="white"/>
</mask>
<g mask="url(#mask0_303_7910)">
<mask id="mask1_303_7910" style="mask-type:luminance" maskUnits="userSpaceOnUse" x="0" y="-1" width="1866" height="829">
<path d="M1255.12 169.545C1298.86 156.766 1293.24 141.591 1302.85 140.217C1323.33 137.246 1327.32 167.053 1373.97 194.528C1420.26 223.057 1426.52 258.007 1455.62 222.194C1482.62 180.503 1487.57 192.196 1512.49 171.238C1564.57 140.409 1550.99 120.314 1576.04 140.824C1584.98 148.14 1616.96 175.679 1637.18 195.454C1660.28 225.165 1692.32 214.527 1730.95 253.726C1774.11 297.527 1828.61 284.396 1865.16 316.759V827.983H0V368.738C81.1467 362.763 160.952 363.147 218.138 296.185C268.072 281.968 218.329 269.349 250.021 243.695C286.537 214.08 309.923 182.484 330.465 157.82C342.062 143.891 351.167 114.978 359.346 125.265C364.681 131.943 373.435 132.741 382.06 139.897C389.792 146.351 399.057 150.632 408.066 159.545C432.346 183.602 471.641 258.167 606.492 223.44C663.231 175.359 628.472 193.889 681.025 144.913C740.096 89.8996 709.97 129.674 765.143 63.1595C786.197 37.7612 808.815 26.931 820.221 14.4395C840.539 -7.85983 854.117 -4.09002 870.059 23.6404C877.535 36.6111 931.27 89.7399 948.905 112.167C973.377 143.316 1078.68 -4.53729 1102.67 18.4649C1120.91 35.9722 1132.54 65.3319 1156.53 74.9162C1176.88 83.0628 1186.15 107.279 1200.36 127.725C1218.29 153.475 1235.6 150.919 1255.12 169.545Z" fill="white"/>
</mask>
<g mask="url(#mask1_303_7910)">
<path d="M0 827.984H1865.16V0H0V827.984Z" fill="url(#paint0_linear_303_7910)"/>
</g>
</g>
<mask id="mask2_303_7910" style="mask-type:luminance" maskUnits="userSpaceOnUse" x="308" y="170" width="1558" height="658">
<path d="M308.391 170.121H1865.16V827.984H308.391V170.121Z" fill="white"/>
</mask>
<g mask="url(#mask2_303_7910)">
<mask id="mask3_303_7910" style="mask-type:luminance" maskUnits="userSpaceOnUse" x="308" y="170" width="1558" height="658">
<path d="M1286.15 350.016C1263.69 315.162 1235.54 371.357 1214.81 353.882C1167.65 314.107 1169.73 323.116 1148.9 340.272C1141.45 346.374 1117.59 354.457 1100.75 371.006C1081.52 395.829 1056.38 348.067 1024.24 380.846C953.38 453.079 918.429 488.285 885.044 452.919C839.519 419.47 768.819 325.449 736.871 397.075C732.239 407.458 598.251 414.135 552.982 453.271C495.923 502.566 339.764 537.996 308.391 503.46L454.168 827.983H1865.16V263.023C1838.61 254.94 1817.72 262.065 1785.55 223.121C1768.01 201.876 1749.19 192.803 1739.7 182.388C1722.77 163.73 1711.49 166.893 1698.2 190.087C1692.01 200.917 1672.29 199.48 1657.63 218.233C1637.25 244.238 1616.87 243.631 1596.93 262.832C1581.72 277.495 1567 291.425 1547.03 299.443C1511.63 313.66 1323.4 386.053 1286.15 350.016Z" fill="white"/>
</mask>
<g mask="url(#mask3_303_7910)">
<path d="M308.391 827.982H1865.16V169.863H308.391V827.982Z" fill="url(#paint1_linear_303_7910)"/>
</g>
</g>
<mask id="mask4_303_7910" style="mask-type:luminance" maskUnits="userSpaceOnUse" x="0" y="170" width="1557" height="658">
<path d="M0 170.121H1556.77V827.984H0V170.121Z" fill="white"/>
</mask>
<g mask="url(#mask4_303_7910)">
<mask id="mask5_303_7910" style="mask-type:luminance" maskUnits="userSpaceOnUse" x="0" y="170" width="1557" height="658">
<path d="M579.017 350.016C601.476 315.162 629.622 371.357 650.356 353.882C697.51 314.107 695.434 323.116 716.263 340.272C723.707 346.374 747.572 354.457 764.408 371.006C783.641 395.829 808.783 348.067 840.923 380.846C911.782 453.079 946.733 488.285 980.118 452.919C1025.64 419.47 1096.34 325.449 1128.29 397.075C1132.92 407.458 1266.91 414.135 1312.18 453.271C1369.24 502.566 1525.4 537.996 1556.77 503.46L1410.99 827.983H0V263.023C26.5484 254.94 47.4421 262.065 79.6132 223.121C97.1524 201.876 115.969 192.803 125.458 182.388C142.39 163.73 153.668 166.893 166.958 190.087C173.156 200.917 192.867 199.48 207.531 218.233C227.882 244.238 248.296 243.631 268.231 262.832C283.438 277.495 298.166 291.425 318.133 299.443C353.499 313.66 541.766 386.053 579.017 350.016Z" fill="white"/>
</mask>
<g mask="url(#mask5_303_7910)">
<path d="M0 827.982H1556.77V169.863H0V827.982Z" fill="url(#paint2_linear_303_7910)"/>
</g>
</g>
<mask id="mask6_303_7910" style="mask-type:luminance" maskUnits="userSpaceOnUse" x="0" y="170" width="1866" height="658">
<path d="M0 170.121H1865.16V827.984H0V170.121Z" fill="white"/>
</mask>
<g mask="url(#mask6_303_7910)">
<mask id="mask7_303_7910" style="mask-type:luminance" maskUnits="userSpaceOnUse" x="0" y="170" width="1866" height="658">
<path d="M1033.18 350.016C1055.64 315.162 1083.79 316.695 1104.52 299.188C1151.64 259.413 1149.57 268.422 1170.43 285.578C1177.87 291.68 1201.74 299.763 1218.54 316.312C1237.77 341.135 1262.92 348.067 1295.06 380.846C1365.92 453.079 1400.9 488.285 1434.28 452.919C1479.78 419.47 1550.48 325.449 1582.42 397.075C1587.06 407.458 1657.31 430.875 1702.58 469.979C1759.64 519.274 1833.79 519.753 1865.16 485.218V827.983H0V411.515C99.9638 375.798 87.3765 370.782 127.023 340.208C139.004 331.008 171.59 277.144 178.395 285.738C182.293 290.658 220.502 322.03 229.575 331.071C249.766 351.166 279.445 333.212 315.833 353.051C363.052 312.861 372.029 327.397 415.765 286.441C464.932 240.468 487.871 278.709 533.779 223.121C551.286 201.876 570.135 192.803 579.592 182.388C596.524 163.73 607.802 166.893 621.092 190.087C627.322 200.917 647.001 199.48 661.697 218.233C682.048 244.238 702.462 243.631 722.397 262.832C737.604 277.495 752.332 291.425 772.299 299.443C807.665 313.66 995.932 386.053 1033.18 350.016Z" fill="white"/>
</mask>
<g mask="url(#mask7_303_7910)">
<path d="M0 827.982H1865.16V169.863H0V827.982Z" fill="url(#paint3_linear_303_7910)"/>
</g>
</g>
<mask id="mask8_303_7910" style="mask-type:luminance" maskUnits="userSpaceOnUse" x="0" y="40" width="1866" height="788">
<path d="M0 40.7661H1865.16V827.985H0V40.7661Z" fill="white"/>
</mask>
<g mask="url(#mask8_303_7910)">
<mask id="mask9_303_7910" style="mask-type:luminance" maskUnits="userSpaceOnUse" x="0" y="40" width="1866" height="788">
<path d="M1194.55 306.538C1257.58 237.116 1217.74 262.162 1298 321.106C1310.04 301.745 1354.13 312.576 1373.42 294.014C1396.04 259.032 1424.38 260.565 1445.27 243.026C1492.72 203.155 1484.51 193.955 1505.53 211.142C1513 217.276 1515.62 231.429 1532.59 248.042C1551.95 272.929 1571.18 292.033 1603.54 324.907C1674.88 397.364 1743.76 487.329 1777.4 451.867C1820.37 406.533 1824.62 507.583 1865.16 484.262V827.985H0C0 819.775 0 524.324 0 516.081C104.021 438.577 242.833 509.404 325.386 412.699C367.269 400.783 394.296 368.58 420.845 347.047C451.482 322.192 471.066 295.707 488.286 275.037C497.998 263.376 505.602 239.128 512.502 247.754C516.943 253.377 524.291 254.016 531.511 260.022C537.996 265.421 545.76 268.999 553.331 276.507C573.65 296.666 606.62 312.065 650.899 351.711C698.469 311.426 707.51 253.057 751.565 212.037C801.052 165.905 824.182 149.579 870.41 93.831C888.077 72.522 907.022 63.4489 916.574 52.9701C933.602 34.2808 944.976 37.4436 958.362 60.7014C964.624 71.5636 982.929 86.8025 997.721 105.62C1018.23 131.721 1040.31 140.187 1060.4 159.483C1075.71 174.147 1090.53 198.779 1110.62 206.829C1127.68 213.634 1135.45 233.953 1147.4 251.109C1162.38 272.705 1178.19 290.915 1194.55 306.538Z" fill="white"/>
</mask>
<g mask="url(#mask9_303_7910)">
<path d="M0 827.985H1865.16V40.7661H0V827.985Z" fill="url(#paint4_linear_303_7910)"/>
</g>
</g>
<mask id="mask10_303_7910" style="mask-type:luminance" maskUnits="userSpaceOnUse" x="0" y="284" width="1866" height="544">
<path d="M0 284.623H1865.16V827.986H0V284.623Z" fill="white"/>
</mask>
<g mask="url(#mask10_303_7910)">
<path fill-rule="evenodd" clip-rule="evenodd" d="M1519.97 465.925C1519.1 464.263 1518.21 462.41 1517.25 460.462C1515.08 465.829 1512.46 468.832 1504.41 472.57C1514.95 475.796 1515.62 474.231 1519.97 465.925ZM1542.04 488.895L1543.45 488.671C1543.1 488.544 1542.75 488.416 1542.43 488.32C1542.33 488.512 1542.17 488.703 1542.04 488.895ZM1520.54 487.266C1524.5 490.013 1528.47 490.556 1533.35 490.173C1535.17 489.502 1537 488.671 1538.78 487.649C1534.7 487.234 1532.52 487.809 1527.16 479.119C1525.53 482.026 1523.39 484.71 1520.54 487.266ZM1513.67 480.461C1514.22 481.164 1514.73 481.803 1515.27 482.41C1519.04 481.355 1521.02 479.63 1524.6 474.806C1523.74 473.177 1522.75 471.356 1521.66 469.279C1520.8 473.688 1519.3 476.531 1513.67 480.461ZM1511.02 483.24L1510.8 482.346C1510.16 482.729 1509.49 483.144 1508.75 483.56C1509.58 483.432 1510.32 483.336 1511.02 483.24ZM1514.63 492.761L1514.22 491.994C1513.83 492.249 1513.42 492.505 1513.03 492.761H1514.63ZM1516.68 502.537C1523.03 503.367 1529.2 504.901 1535.11 507.233L1537.54 506.977C1533.35 505.22 1527.7 504.837 1522.49 501.514C1520.7 501.93 1518.66 502.249 1516.68 502.537ZM1308.79 512.44C1308.12 512.856 1307.45 513.367 1306.69 514.07C1308.31 513.846 1310.04 513.526 1311.89 513.207C1310.71 512.792 1309.69 512.568 1308.79 512.44ZM1304.67 462.347C1307.1 463.752 1309.34 464.807 1311.41 465.477C1311.93 465.03 1312.37 464.551 1312.79 464.04C1312.47 464.583 1312.15 465.126 1311.89 465.637C1317.71 467.362 1321.8 466.084 1323.11 462.379C1312.47 461.324 1309.94 462.986 1307.13 452.954C1306.43 457.682 1305.76 460.494 1304.67 462.347ZM1306.21 474.902C1310.2 477.266 1312.95 475.796 1321.06 474.455C1318.15 471.643 1314.48 472.698 1309.88 469.599C1308.67 472.25 1308.25 473.528 1306.21 474.902ZM1298.67 468.512L1298.44 467.905L1299.11 468.64C1301.86 469.311 1304.93 468.928 1307.64 467.81C1306.43 466.691 1305.22 465.254 1303.91 463.433C1302.28 465.318 1299.85 465.861 1295.79 467.107C1296.65 467.746 1297.64 468.193 1298.67 468.512ZM1306.75 480.684C1305.54 479.662 1304.29 478.352 1303.04 476.595C1301.99 477.074 1300.74 477.617 1299.21 478.288C1301.61 480.461 1303.75 481.451 1306.75 480.684ZM1309.18 486.786C1311.35 486.754 1314.35 486.595 1318.99 486.691C1318.76 483.528 1315.76 484.646 1311.61 483.368C1310.9 484.71 1310.17 485.796 1309.18 486.786ZM1305.57 501.514C1308.83 502.6 1311.7 501.706 1315.92 499.47C1314.07 498.767 1312.47 498.256 1311 497.808C1309.75 499.406 1308.12 500.684 1305.57 501.514ZM1276.24 494.166C1274.93 494.933 1273.75 495.412 1272.41 496.243C1274 496.179 1275.98 496.147 1278.64 496.211C1278.54 494.677 1277.65 494.358 1276.24 494.166ZM1271.93 482.697C1270.43 483.656 1268.51 484.422 1265.92 484.838C1267.55 486.307 1268.83 487.042 1270.14 487.393C1272.92 487.713 1275.86 487.074 1279.27 485.381C1277.23 484.167 1274.83 484.358 1271.93 482.697ZM1277.07 475.956C1276.5 477.234 1275.89 478.416 1275.12 479.502C1278.67 479.982 1281.1 478.831 1281.99 476.34C1280.04 476.148 1278.44 476.052 1277.07 475.956ZM1269.43 470.301C1267.97 471.196 1266.14 472.154 1263.81 473.305C1268 474.806 1270.11 475.221 1272.02 474.614C1270.97 473.848 1270.2 472.506 1269.43 470.301ZM1275.44 463.88C1274.42 465.925 1273.33 467.394 1271.54 468.832C1273.2 470.653 1274.67 470.238 1280.11 469.343L1280.58 469.024L1280.39 469.279C1281.13 469.183 1281.89 469.056 1282.76 468.928C1279.69 465.445 1278.44 470.014 1275.44 463.88ZM1278.7 456.692C1278.06 458.098 1277.55 459.312 1277.07 460.398C1279.18 461.676 1280.01 459.855 1283.97 457.554C1282.02 456.947 1280.3 457.235 1278.7 456.692ZM1273.33 449.056C1271.22 453.689 1271.22 454.328 1261.61 458.353C1265.12 461.612 1268.22 462.442 1273.68 459.535C1273.33 458.481 1272.95 457.331 1272.53 456.021C1273.56 457.139 1274.39 458.034 1275.09 458.736C1276.11 458.13 1277.17 457.427 1278.35 456.596C1276.62 455.893 1274.99 454.104 1273.33 449.056ZM1276.66 442.603C1275.22 445.031 1274.32 446.884 1273.62 448.354C1278.22 453.88 1281.7 452.123 1286.11 448.545C1286.59 444.136 1283.46 455.829 1276.66 442.603ZM1712.1 466.372C1715.39 467.203 1718.43 466.244 1722.67 463.944C1719.42 462.698 1716.8 462.059 1714.5 461.26C1713.67 463.113 1712.87 464.807 1712.1 466.372ZM1698.14 456.245C1701.43 459.407 1704.08 461.771 1706.41 463.465C1707.66 462.283 1709.06 461.005 1710.73 459.599C1707.69 457.842 1704.91 454.839 1701.37 448.29C1700.44 451.389 1699.32 454.008 1698.14 456.245ZM1588.56 484.933C1588.21 485.317 1587.86 485.7 1587.5 486.147C1589.33 487.361 1591.15 487.937 1593 488C1591.4 487.01 1589.93 485.988 1588.56 484.933ZM1600.95 476.212C1600.41 476.691 1599.9 477.074 1599.42 477.458C1600.92 477.681 1602.62 477.905 1604.47 478.161C1603.22 477.458 1602.04 476.819 1600.95 476.212ZM1610.92 462.666L1610.83 462.858L1611.15 462.762L1610.92 462.666ZM1588.11 466.244C1586.61 466.691 1584.88 467.043 1582.9 467.266C1585.84 469.151 1588.75 470.174 1591.91 470.174C1590.32 468.864 1589.1 467.554 1588.11 466.244ZM1598.91 455.957C1597.6 458.705 1596.26 461.196 1594.02 463.145C1596.96 465.509 1600.73 465.509 1608.49 463.497C1609.04 463.113 1609.58 462.73 1610.12 462.315C1605.14 460.142 1601.59 458.129 1598.91 455.957ZM1583.73 452.028L1582.46 452.666C1582.97 452.826 1583.45 452.986 1583.89 453.146L1583.73 452.028ZM1592.07 447.076C1590.54 448.322 1588.59 449.536 1585.88 450.941C1586.58 452.123 1587.22 453.242 1587.79 454.264C1591.24 455.031 1593.06 454.487 1595.65 452.794C1594.21 451.069 1593.1 449.216 1592.07 447.076ZM1599.01 436.373C1597.57 439.632 1596.55 441.964 1595.14 443.913C1597.09 445.798 1599.13 447.459 1601.27 448.705C1601.88 448.29 1602.52 447.81 1603.25 447.331C1602.84 447.97 1602.49 448.577 1602.14 449.184C1606.48 451.452 1611.08 451.9 1615.52 448.897C1608.4 440.399 1605.33 442.859 1599.01 436.373ZM1591.95 427.076C1590.32 429.377 1587.63 430.846 1579.71 434.169C1582.55 436.757 1585.11 438.098 1588.4 437.779C1588.02 436.661 1587.57 435.479 1587.12 434.233C1587.89 435.351 1588.72 436.469 1589.58 437.587C1591.69 437.14 1594.15 436.054 1597.09 434.233C1595.59 432.412 1593.89 430.112 1591.95 427.076ZM1766.09 471.803C1764.62 472.793 1763.02 474.135 1761.04 476.499C1763.25 478.001 1765.52 478.48 1767.72 478.288C1767.02 476.212 1766.51 474.039 1766.09 471.803ZM1777.46 463.177C1773.09 468.672 1770.5 469.311 1767.5 470.972C1769.25 473.209 1770.79 475.189 1772.16 476.947C1774.49 475.796 1776.76 474.007 1778.84 471.931C1778.39 469.471 1778.04 466.628 1777.46 463.177ZM1782.86 455.254C1780.95 458.385 1779.32 460.781 1777.88 462.666C1779.32 465.03 1780.53 467.107 1781.59 468.96C1782.96 467.33 1784.21 465.637 1785.39 463.944C1784.4 466.659 1783.57 468.992 1782.77 471.068C1783.44 472.218 1784.05 473.241 1784.62 474.135C1787.78 473.209 1790.79 472.602 1793.66 472.218C1787.66 468.001 1785.77 463.337 1782.86 455.254ZM1459.43 438.066C1463.77 441.677 1463.55 440.239 1474.83 440.463C1474.54 436.022 1468.72 440.878 1462.46 432.603C1461.44 434.712 1460.45 436.533 1459.43 438.066ZM1455.15 437.236C1454.51 435.894 1453.84 434.361 1453.13 432.699C1454.7 433.977 1455.94 435.063 1457 435.99C1458.34 434.936 1459.87 433.53 1461.76 431.613C1460.51 429.792 1459.27 427.396 1458.05 424.297C1449.68 436.405 1443.61 432.284 1439.08 436.661C1447.86 438.13 1450.9 439.664 1455.15 437.236ZM1462.78 453.625C1465.88 455.126 1468.4 454.392 1472.24 452.123C1469.43 450.941 1467.22 450.398 1465.31 449.6C1464.41 451.165 1463.58 452.475 1462.78 453.625ZM1452.75 444.871C1454.54 446.756 1456.07 448.322 1457.45 449.6C1458.63 449.184 1459.78 448.449 1461.47 447.203C1460.07 445.894 1458.66 444.041 1457.09 441.133C1455.62 442.827 1454.16 444.009 1452.75 444.871ZM1453.36 450.111C1452.72 448.769 1452.01 447.299 1451.28 445.638C1445.85 448.162 1441.66 446.117 1441.38 450.015C1447.41 449.887 1450.93 450.111 1453.36 450.111ZM1467.7 464.87L1468.92 464.647C1468.6 464.519 1468.31 464.423 1467.99 464.327L1467.7 464.87ZM1450.29 462.091C1452.56 464.295 1454.7 465.382 1457.09 465.765C1458.5 465.158 1459.97 464.231 1461.66 462.954C1460.58 462.347 1459.46 461.133 1457.96 458.768C1455.62 460.462 1453.26 461.196 1450.29 462.091ZM1446.23 464.711C1446.1 464.327 1445.98 463.944 1445.85 463.529L1444.73 463.944C1445.27 464.2 1445.75 464.455 1446.23 464.711ZM1457.41 480.237C1459.33 480.109 1461.66 479.854 1464.54 479.502C1462.62 478.608 1460.26 478.161 1457.83 477.298C1455.5 478.161 1453.2 477.522 1449.11 478.927C1452.21 479.47 1454.92 479.95 1457.41 480.237ZM1374.22 521.705C1373.94 522.376 1373.62 523.047 1373.23 523.654C1374.99 523.43 1376.78 523.175 1378.57 522.951C1376.94 522.6 1375.47 522.184 1374.22 521.705ZM1363.94 516.657C1361.73 518.446 1358.73 520.076 1354.51 521.865C1364.16 524.548 1366.94 524.229 1370.01 519.884C1367.83 518.862 1365.82 517.776 1363.94 516.657ZM1353.58 508.319C1352.82 509.022 1351.99 509.884 1351.09 510.971C1353.33 512.504 1355.66 512.888 1357.93 512.504C1356.2 511.13 1354.73 509.725 1353.58 508.319ZM1370.68 492.154C1363.49 503.783 1360.52 503.91 1356.75 506.051C1359.27 507.425 1361.86 508.511 1364.45 509.373C1367.83 506.786 1370.9 503.048 1373.36 499.47C1371.64 504.23 1370.45 507.776 1368.92 510.683C1370.87 511.13 1372.85 511.514 1374.83 511.801C1375.44 510.715 1376.11 509.597 1376.87 508.383C1376.62 509.693 1376.43 510.875 1376.27 511.961C1381.35 512.6 1386.39 512.632 1391.31 512.536C1380.29 506.466 1374.03 499.853 1370.68 492.154ZM1083.6 438.578C1085.83 439.6 1087.94 440.207 1089.92 440.367C1090.82 439.504 1091.74 438.578 1092.77 437.555C1092.29 438.578 1091.81 439.504 1091.36 440.431C1094.14 440.399 1096.73 439.504 1099.28 437.843C1092.67 437.108 1089.44 434.84 1087.27 431.773C1085.93 434.552 1084.71 436.789 1083.6 438.578ZM1074.17 432.763C1075.93 434.073 1077.62 435.223 1079.19 436.213C1080.78 435.383 1082.67 433.754 1086.57 430.687C1085.1 428.227 1084.04 425.319 1082.48 422.316C1079.7 428.227 1076.79 431.198 1074.17 432.763ZM1076.38 437.012C1075.61 435.798 1074.78 434.424 1073.88 432.923C1068.96 435.67 1065.07 433.53 1064.84 436.98C1071.3 436.852 1074.27 437.172 1076.38 437.012ZM1083.79 454.36C1087.43 456.532 1091.33 457.171 1095.13 454.647L1095.16 454.583C1091.77 450.558 1089.54 449.695 1087.21 448.481C1085.9 450.909 1084.78 452.826 1083.79 454.36ZM1075.1 446.117C1076.12 447.427 1077.21 448.705 1078.36 449.887C1079.92 449.12 1081.65 447.906 1083.69 446.149C1082.7 445.319 1081.62 444.232 1080.4 442.731C1078.68 444.488 1076.98 445.414 1075.1 446.117ZM1075.74 450.75C1075.19 449.44 1074.68 448.034 1074.11 446.437C1072.29 447.076 1070.18 447.587 1067.62 448.577C1070.88 450.302 1073.25 451.133 1075.74 450.75ZM1074.27 460.334C1074.55 460.813 1074.84 461.26 1075.1 461.708C1078.9 462.315 1082 462.634 1084.84 462.059C1082.99 460.941 1081.55 459.791 1080.37 458.545C1078.32 460.302 1076.76 459.982 1074.27 460.334ZM1007.05 474.295C1006.41 473.113 1005.84 471.931 1005.39 470.685C1002.26 474.519 999.606 474.263 994.718 476.148C999.51 478.736 1001.87 478.704 1007.05 474.295ZM998.328 485.477C998.935 485.732 999.574 485.988 1000.21 486.211C1000.66 486.275 1001.11 486.339 1001.52 486.403C1005.68 484.997 1009.67 483.656 1013.57 482.41C1011.78 480.78 1010.28 479.119 1009.03 477.426C1003.66 486.946 1002.83 484.231 998.328 485.477ZM0 827.986V527.04C24.4399 537.998 47.6018 568.7 65.173 554.611C94.7563 530.842 100.762 565.409 123.988 569.051C166.191 575.664 185.519 574.77 238.233 548.637C255.644 540.011 295.355 559.531 326.855 544.899C319.635 541.449 315.769 533.142 316.089 533.558C319.986 537.998 329.06 540.554 334.746 540.33C335.481 539.819 336.248 539.276 336.982 538.701L337.238 538.478C327.462 537.295 326.248 534.388 321.232 521.833C333.404 531.769 327.941 533.462 343.308 531.609C338.484 529.404 330.082 530.746 327.814 511.865C334.267 523.079 337.877 522.28 346.535 520.587C340.784 518.414 341.359 524.261 331.935 503.144C341.487 513.431 343.212 514.741 349.027 511.322C342.541 508.607 340.529 510.46 334.842 496.914C343.723 504.39 339.858 502.473 350.912 502.664C350.656 498.543 343.915 505.252 338.228 489.981C344.618 497.297 344.65 495.796 352.221 494.39C349.506 491.515 345.768 494.614 340.529 485.125C347.206 490.077 352.253 489.949 353.467 486.243C345.576 485.381 344.937 487.17 342.477 474.774C346.918 482.505 345.161 481.547 354.042 480.109C351.071 476.467 350.368 483.56 346.311 469.439C351.295 475.477 350.496 473.528 354.969 470.717C351.582 469.535 349.186 472.25 346.471 462.155C350.273 467.842 353.02 466.404 356.566 463.241C356.95 459.28 354.138 471.036 348.036 455.031C351.678 459.216 353.084 459.375 356.439 456.82C353.404 454.967 352.828 458.928 349.506 450.558C352.828 454.136 352.797 453.657 356.822 450.941C353.34 451.58 352.637 450.877 350.912 444.552C353.627 448.609 355.001 448.226 357.109 447.587C356.822 445.446 352.86 447.427 353.883 438.29C354.649 442.06 354.905 444.232 357.493 443.466C359.537 442.859 353.947 440.974 354.106 435.606C355.065 437.332 355.895 438.705 357.812 438.801C358.739 438.865 358.835 433.658 358.994 432.476C359.761 438.322 360.208 438.322 362.54 435.543C362.253 437.747 361.295 438.29 360.719 439.536C360.081 440.878 359.985 442.379 359.985 444.36C361.646 444.839 363.147 442.603 363.914 439.6C363.882 443.593 363.946 445.159 360.4 449.248C362.764 449.248 364.617 446.628 366.055 443.817C365.512 448.354 363.946 449.408 360.751 453.369C363.403 453.018 364.713 452.571 367.588 449.408C365.16 455.957 364.234 455.446 361.103 457.522C363.435 459.28 365.831 459.887 367.716 454.967C366.821 461.26 367.365 461.452 362.668 463.816C366.949 464.583 366.502 464.647 369.281 460.589C367.556 467.075 367.748 466.883 362.668 469.503C363.786 474.007 368.355 477.01 372.764 464.295C371.294 476.819 370.304 476.435 363.882 478.608C367.716 481.611 373.85 479.95 376.725 476.084C372.221 484.358 375.256 483.815 366.47 487.841C369.537 490.94 372.125 491.099 378.259 486.179C375.032 493.911 375.447 494.997 367.972 498.958C374.074 501.323 373.626 500.045 379.377 495.764C376.118 501.354 376.629 506.754 368.195 507.744C372.636 510.907 377.045 509.884 384.137 503.942C376.629 518.255 375.767 512.568 370.751 519.085C375.735 522.791 381.102 516.721 384.488 511.322C381.709 519.66 381.358 522.504 372.86 526.465C382.188 529.309 381.102 527.136 386.661 517.36C385.702 523.143 385.862 526.082 383.498 529.021C384.584 529.181 385.671 529.341 386.757 529.532C388.226 527.711 390.015 525.123 392.699 521.386C392.348 524.548 391.613 527.456 390.335 530.139C406.596 533.206 422.602 538.158 436.659 536.752C495.506 530.81 523.939 500.428 551.031 504.134C573.394 507.201 594.192 512.217 616.012 502.441C611.22 498.064 608.792 492.729 609.048 493.048C611.763 496.147 616.555 498.447 621.411 499.725C622.945 498.895 624.478 497.968 626.012 496.946C621.092 494.614 619.207 489.917 615.022 479.502C626.683 489.023 624.382 492.026 633.264 491.547C634.158 490.812 635.053 490.077 635.915 489.278C630.676 487.617 624.638 484.454 622.657 467.905C630.133 480.94 634.318 479.982 644.382 478.065C637.705 475.509 638.343 482.314 627.417 457.778C638.503 469.758 640.516 471.26 647.225 467.266C639.717 464.136 637.385 466.276 630.804 450.59C641.091 459.248 636.586 457.011 649.461 457.267C649.142 452.475 641.315 460.238 634.733 442.539C642.145 451.037 642.177 449.28 650.931 447.683C647.8 444.328 643.487 447.938 637.417 436.916C645.148 442.667 650.995 442.507 652.4 438.194C643.263 437.204 642.497 439.28 639.653 424.904C644.797 433.849 642.784 432.763 653.071 431.102C649.621 426.853 648.79 435.095 644.094 418.706C649.877 425.703 648.95 423.466 654.126 420.176C650.196 418.834 647.417 421.997 644.286 410.272C648.694 416.853 651.889 415.192 656.01 411.55C656.458 406.95 653.167 420.559 646.107 402.03C650.324 406.854 651.953 407.045 655.851 404.074C652.336 401.934 651.634 406.534 647.8 396.822C651.666 400.975 651.634 400.4 656.298 397.269C652.241 398.004 651.442 397.174 649.429 389.858C652.592 394.554 654.189 394.139 656.649 393.372C656.298 390.912 651.698 393.18 652.88 382.606C653.774 386.982 654.094 389.474 657.065 388.58C659.461 387.877 652.975 385.704 653.167 379.475C654.253 381.487 655.212 383.085 657.448 383.181C658.534 383.244 658.63 377.206 658.822 375.833C659.684 382.637 660.228 382.637 662.943 379.411C662.592 381.967 661.473 382.606 660.803 384.043C660.068 385.609 659.94 387.334 659.94 389.602C661.857 390.177 663.614 387.621 664.508 384.107C664.477 388.739 664.572 390.56 660.451 395.321C663.167 395.321 665.339 392.254 667 389.027C666.361 394.266 664.54 395.48 660.835 400.081C663.901 399.666 665.435 399.154 668.758 395.48C665.978 403.084 664.892 402.509 661.25 404.905C663.965 406.918 666.745 407.62 668.949 401.934C667.895 409.218 668.502 409.441 663.071 412.189C668.055 413.115 667.544 413.179 670.738 408.451C668.726 415.991 668.981 415.735 663.071 418.802C664.381 424.01 669.684 427.492 674.796 412.732C673.07 427.3 671.92 426.853 664.477 429.377C668.917 432.827 676.042 430.91 679.396 426.406C674.157 436.022 677.671 435.383 667.48 440.047C671.058 443.657 674.029 443.817 681.153 438.162C677.415 447.108 677.926 448.354 669.205 452.954C676.297 455.701 675.786 454.2 682.463 449.248C678.693 455.733 679.236 461.995 669.492 463.145C674.636 466.787 679.747 465.637 687.99 458.768C679.236 475.317 678.246 468.736 672.431 476.308C678.246 480.589 684.444 473.528 688.405 467.298C685.722 475.253 684.987 478.895 679.332 482.473C680.898 483.4 682.463 484.39 683.996 485.477C686.137 484.071 687.351 480.493 690.897 474.263C689.779 481.068 689.971 484.454 687.191 487.873C688.022 488.544 688.852 489.246 689.683 489.949C691.632 487.841 693.9 484.518 697.894 478.959C697.319 484.199 695.881 488.799 692.878 492.92C695.21 495.189 697.446 497.585 699.587 500.045C702.782 498.926 705.912 497.233 708.979 494.741C708.884 497.361 706.424 500.588 702.494 503.559C708.436 510.971 713.388 518.638 717.062 524.804C729.458 545.666 758.306 584.035 807.985 548.03C842.68 522.919 877.694 523.015 938.427 506.658C935.967 504.549 934.529 502.409 934.465 500.588C937.372 502.792 940.375 504.294 943.41 505.284C946.701 504.389 950.023 503.431 953.41 502.409C948.203 497.84 945.998 492.697 945.263 486.531C953.921 497.585 954.209 498.799 961.684 499.917L962.834 499.565C952.42 493.783 953.761 491.483 952.1 482.378C958.394 492.473 957.148 494.773 967.722 491.802C958.106 487.713 957.723 484.774 954.528 476.148C958.394 481.707 964.432 488 970.118 484.167C964.432 477.426 963.441 483.304 954.943 468.544C962.962 474.678 967.946 475.701 972.994 472.442C963.473 471.42 964.017 465.829 960.343 460.078C966.828 464.487 966.349 465.829 973.249 463.369C964.751 459.28 965.231 458.161 961.589 450.175C968.553 455.222 971.46 455.094 974.943 451.868C964.975 447.683 968.425 448.258 963.314 439.696C966.572 443.689 973.537 445.414 977.882 442.347C970.598 440.079 969.48 440.494 967.818 427.524C972.802 440.654 977.978 437.555 979.255 432.923C973.505 430.207 973.729 430.399 971.78 423.69C974.911 427.907 974.399 427.843 979.224 427.045C973.952 424.585 974.559 424.393 973.537 417.876C975.677 422.955 978.393 422.348 981.013 420.559C977.466 418.387 976.412 418.93 973.697 412.125C976.923 415.416 978.425 415.863 981.428 416.214C977.818 412.125 976.061 411.071 975.422 406.375C977.019 409.25 979.16 411.997 981.811 411.965C977.786 407.748 977.85 406.119 977.85 401.998C978.712 405.129 980.438 407.429 982.291 406.918C982.291 404.873 982.163 403.339 981.46 401.934C980.821 400.656 979.735 400.081 979.383 397.813C982.035 400.688 982.546 400.688 983.409 394.618C983.568 395.864 983.664 401.231 984.75 401.167C986.923 401.071 987.849 399.666 988.936 397.876C989.127 403.435 982.802 405.384 985.134 405.991C988.041 406.79 988.329 404.553 989.191 400.656C990.373 410.08 985.837 408.068 985.517 410.272C987.913 410.943 989.479 411.326 992.546 407.141C990.597 413.659 989.798 414.393 985.837 413.722C990.405 416.534 990.373 417.045 994.143 413.339C990.405 421.997 989.734 417.876 986.284 419.824C990.118 422.444 991.683 422.284 995.804 417.971C988.904 434.488 985.709 422.348 986.156 426.469C990.182 429.696 993.28 431.198 997.593 425.319C994.526 435.766 991.811 432.955 987.977 434.169C993.025 437.076 992.13 439.089 997.753 432.827C993.185 447.459 992.386 440.111 988.999 443.881C999.063 445.35 997.082 446.341 1002.13 438.354C999.35 451.197 998.584 449.344 989.67 450.206C991.044 454.072 996.731 454.2 1004.3 449.056C998.392 458.864 994.175 455.67 991.076 458.641C999.638 460.078 999.67 461.676 1006.92 454.072C1000.47 469.854 992.865 462.922 992.546 467.203C1000.63 467.075 1001.68 467.842 1004.08 466.34C1003.79 464.966 1003.54 463.561 1003.38 462.091L1005.77 465.158C1006.92 464.263 1008.46 463.017 1010.72 461.26C1009.57 463.816 1008.52 465.829 1007.56 467.49C1008.65 468.864 1009.61 470.078 1010.47 471.132C1011.55 470.11 1012.74 468.96 1014.05 467.682C1013.15 469.471 1012.35 471.1 1011.65 472.506C1013.98 475.285 1015.77 476.819 1017.98 477.809C1018.23 477.458 1018.46 477.074 1018.71 476.691C1018.65 477.17 1018.58 477.586 1018.52 478.033C1019.86 478.576 1021.43 478.927 1023.34 479.247L1025.45 478.608C1012.74 471.388 1014.37 468.321 1012.26 456.692C1020.44 469.822 1018.81 472.761 1032.54 468.928C1020.05 463.624 1019.54 459.791 1015.42 448.577C1020.44 455.829 1028.29 464.008 1035.67 459.024C1028.29 450.238 1027.02 457.874 1015.93 438.673C1026.38 446.66 1032.86 448.002 1039.41 443.785C1027.02 442.443 1027.72 435.191 1022.96 427.684C1031.39 433.402 1030.75 435.159 1039.76 431.964C1028.71 426.661 1029.32 425.192 1024.59 414.841C1033.63 421.39 1037.43 421.198 1041.97 417.045C1029 411.614 1033.47 412.349 1026.86 401.199C1031.07 406.406 1040.12 408.643 1045.77 404.617C1036.28 401.71 1034.84 402.221 1032.7 385.353C1039.16 402.477 1045.9 398.42 1047.56 392.413C1040.05 388.867 1040.34 389.123 1037.82 380.401C1041.87 385.864 1041.23 385.8 1047.53 384.746C1040.63 381.551 1041.43 381.296 1040.08 372.862C1042.89 379.443 1046.41 378.644 1049.86 376.312C1045.23 373.5 1043.89 374.203 1040.31 365.386C1044.52 369.635 1046.47 370.242 1050.37 370.689C1045.67 365.386 1043.37 363.98 1042.58 357.878C1044.65 361.648 1047.4 365.194 1050.88 365.162C1045.64 359.667 1045.74 357.559 1045.74 352.191C1046.86 356.249 1049.06 359.252 1051.52 358.581C1051.49 355.929 1051.33 353.949 1050.4 352.128C1049.57 350.466 1048.17 349.7 1047.72 346.76C1051.14 350.498 1051.84 350.498 1052.93 342.639C1053.18 344.205 1053.31 351.201 1054.65 351.137C1057.49 351.009 1058.74 349.156 1060.11 346.824C1060.37 354.044 1052.13 356.568 1055.16 357.399C1058.96 358.421 1059.35 355.514 1060.47 350.466C1061.97 362.702 1056.12 360.083 1055.71 362.958C1058.8 363.82 1060.85 364.3 1064.84 358.869C1062.32 367.335 1061.26 368.293 1056.12 367.462C1062.06 371.072 1062 371.743 1066.89 366.919C1062.03 378.197 1061.17 372.83 1056.7 375.353C1061.65 378.772 1063.72 378.58 1069.06 372.957C1060.11 394.458 1055.93 378.676 1056.5 383.979C1061.74 388.228 1065.77 390.145 1071.39 382.51C1067.4 396.087 1063.88 392.445 1058.87 394.011C1065.45 397.813 1064.3 400.4 1071.62 392.286C1065.67 411.294 1064.62 401.742 1060.21 406.662C1073.28 408.579 1070.72 409.857 1077.27 399.474C1073.66 416.15 1072.7 413.722 1061.1 414.873C1062.86 419.888 1070.27 420.016 1080.11 413.403C1072.41 426.118 1066.92 421.997 1062.93 425.831C1073.4 427.588 1074.04 429.536 1082 421.454C1081.74 421.006 1081.49 420.559 1081.2 420.112C1081.65 420.399 1082.06 420.719 1082.45 420.975L1083.5 419.888C1083.31 420.399 1083.12 420.847 1082.93 421.294C1090.46 426.661 1090.43 428.099 1099.67 424.84C1087.53 418.994 1088.2 417.364 1083.02 405.959C1092.96 413.211 1097.11 412.988 1102.09 408.387C1087.85 402.413 1092.77 403.212 1085.48 391.008C1090.15 396.694 1100.08 399.154 1106.31 394.746C1095.86 391.551 1094.27 392.126 1091.9 373.564C1099.03 392.35 1106.44 387.909 1108.29 381.296C1100.02 377.398 1100.34 377.718 1097.56 368.069C1102.03 374.107 1101.3 374.012 1108.23 372.862C1100.66 369.379 1101.55 369.092 1100.05 359.763C1103.15 367.047 1107.05 366.153 1110.78 363.597C1105.7 360.498 1104.2 361.265 1100.3 351.553C1104.94 356.249 1107.08 356.888 1111.36 357.399C1106.21 351.553 1103.69 350.019 1102.8 343.31C1105.06 347.431 1108.1 351.329 1111.93 351.329C1106.18 345.259 1106.28 342.959 1106.25 337.048C1107.49 341.521 1109.95 344.78 1112.64 344.077C1112.6 341.138 1112.41 338.965 1111.42 336.984C1110.5 335.132 1108.93 334.301 1108.45 331.074C1112.22 335.163 1112.99 335.163 1114.2 326.506C1114.46 328.263 1114.59 335.962 1116.12 335.866C1119.22 335.739 1120.56 333.694 1122.09 331.138C1122.35 339.093 1113.31 341.872 1116.63 342.767C1120.81 343.885 1121.26 340.722 1122.51 335.132C1124.14 348.613 1117.68 345.706 1117.24 348.901C1120.66 349.827 1122.89 350.37 1127.3 344.396C1124.49 353.725 1123.37 354.747 1117.68 353.853C1124.23 357.846 1124.17 358.549 1129.57 353.246C1124.2 365.641 1123.24 359.763 1118.32 362.511C1123.79 366.312 1126.05 366.089 1131.93 359.891C1122.09 383.532 1117.49 366.153 1118.13 372.031C1123.88 376.663 1128.32 378.804 1134.49 370.402C1130.11 385.353 1126.21 381.328 1120.72 383.053C1127.97 387.238 1126.69 390.113 1134.74 381.168C1128.19 402.094 1127.04 391.551 1122.22 396.982C1136.6 399.09 1133.75 400.496 1140.97 389.059C1136.98 407.429 1135.93 404.745 1123.18 406.023C1125.13 411.518 1133.27 411.71 1144.1 404.394C1135.61 418.419 1129.6 413.85 1125.19 418.099C1137.43 420.144 1137.46 422.412 1147.84 411.55C1138.64 434.137 1127.72 424.201 1127.27 430.335C1145.22 430.016 1138.93 432.859 1153.31 421.805C1144.14 441.836 1140.88 439.121 1130.37 443.114C1139.76 448.162 1142.57 446.245 1158.03 431.006C1142.79 462.251 1143.69 453.593 1134.36 456.852C1148.42 459.312 1154.23 460.526 1164.71 443.913C1161.2 470.429 1148.77 470.014 1140.85 472.666C1141.55 472.921 1142.25 473.177 1142.99 473.464C1163.72 475.605 1156.6 472.666 1175.35 458.673C1169.41 472.218 1166.76 478.161 1159.6 481.068C1161.74 482.186 1163.91 483.336 1166.12 484.55C1172.99 482.921 1179.85 479.982 1183.69 475.956C1184.1 475.541 1180.4 482.889 1173.21 488.544C1186.63 496.403 1201.45 506.211 1218.86 517.967C1221.13 517.839 1223.94 517.552 1227.52 517.169C1220.4 514.229 1208.06 516.018 1204.71 490.62C1214.2 505.731 1219.53 504.613 1232.28 502.377C1223.81 499.438 1224.61 507.297 1210.78 478.895C1224.8 492.761 1227.39 494.486 1235.92 489.885C1226.37 486.275 1223.4 488.735 1215.06 470.525C1228.13 480.589 1222.41 478.001 1238.73 478.288C1238.32 472.73 1228.41 481.739 1220.04 461.228C1229.47 471.1 1229.5 469.024 1240.62 467.171C1236.62 463.305 1231.13 467.458 1223.43 454.743C1233.27 461.356 1240.65 461.228 1242.44 456.213C1230.84 455.063 1229.88 457.491 1226.27 440.782C1232.82 451.165 1230.27 449.887 1243.3 447.97C1238.92 443.05 1237.9 452.635 1231.93 433.626C1239.24 441.74 1238.09 439.153 1244.68 435.319C1239.69 433.754 1236.15 437.427 1232.15 423.818C1237.77 431.485 1241.8 429.536 1247.04 425.319C1247.61 419.984 1243.43 435.766 1234.48 414.297C1239.85 419.888 1241.9 420.112 1246.85 416.662C1242.38 414.17 1241.51 419.505 1236.66 408.259C1241.54 413.052 1241.48 412.413 1247.42 408.803C1242.28 409.633 1241.23 408.675 1238.7 400.209C1242.69 405.64 1244.74 405.16 1247.84 404.298C1247.42 401.391 1241.54 404.042 1243.08 391.806C1244.2 396.854 1244.58 399.761 1248.38 398.739C1251.42 397.908 1243.17 395.385 1243.43 388.164C1244.8 390.497 1246.05 392.318 1248.86 392.477C1250.23 392.541 1250.36 385.545 1250.59 383.947C1251.7 391.838 1252.37 391.838 1255.83 388.101C1255.41 391.04 1253.97 391.774 1253.14 393.468C1252.22 395.257 1252.06 397.238 1252.02 399.889C1254.48 400.56 1256.69 397.589 1257.81 393.532C1257.81 398.899 1257.9 401.007 1252.66 406.502C1256.14 406.534 1258.89 402.956 1260.97 399.218C1260.17 405.288 1257.87 406.694 1253.17 412.029C1257.07 411.55 1259.02 410.975 1263.24 406.726C1259.69 415.543 1258.32 414.841 1253.68 417.652C1257.1 419.984 1260.65 420.783 1263.43 414.17C1262.12 422.636 1262.89 422.891 1256.02 426.054C1262.31 427.14 1261.67 427.204 1265.73 421.709C1263.21 430.463 1263.49 430.207 1255.98 433.722C1257.65 439.76 1264.39 443.785 1270.87 426.693C1268.7 443.561 1267.26 443.05 1257.77 445.957C1263.43 449.951 1272.37 447.747 1276.66 442.603C1276.08 441.453 1275.47 440.143 1274.83 438.641C1279.63 443.689 1281.48 443.849 1285.95 440.782C1281.93 438.514 1281.16 443.338 1276.78 433.21C1281.16 437.523 1281.13 436.948 1286.46 433.69C1281.83 434.424 1280.9 433.594 1278.64 425.958C1282.21 430.846 1284.03 430.399 1286.85 429.632C1286.46 427.045 1281.19 429.409 1282.57 418.387C1283.56 422.955 1283.91 425.543 1287.33 424.648C1290.04 423.914 1282.66 421.645 1282.85 415.128C1284.1 417.205 1285.22 418.866 1287.77 418.994C1289.02 419.058 1289.11 412.764 1289.34 411.358C1290.33 418.419 1290.94 418.419 1294.03 415.064C1293.62 417.716 1292.37 418.387 1291.61 419.888C1290.78 421.518 1290.62 423.307 1290.62 425.703C1292.82 426.278 1294.8 423.594 1295.82 419.952C1295.79 424.776 1295.89 426.661 1291.16 431.613C1294.29 431.645 1296.78 428.45 1298.63 425.064C1297.9 430.559 1295.86 431.805 1291.64 436.597C1295.15 436.182 1296.91 435.638 1300.68 431.805C1297.48 439.728 1296.27 439.121 1292.09 441.645C1295.18 443.753 1298.35 444.456 1300.87 438.546C1299.69 446.149 1300.39 446.373 1294.19 449.216C1299.88 450.175 1299.27 450.238 1302.92 445.319C1300.65 453.178 1300.94 452.922 1294.16 456.117C1295.6 461.292 1301.19 464.838 1306.78 451.676C1306.3 449.919 1305.82 447.874 1305.31 445.414C1312.5 456.852 1309.69 455.446 1324.07 453.337C1319.24 447.938 1318.09 458.449 1311.54 437.523C1319.56 446.469 1318.28 443.593 1325.53 439.408C1320.04 437.683 1316.17 441.708 1311.77 426.757C1317.93 435.159 1322.37 433.051 1328.15 428.386C1328.79 422.508 1324.19 439.887 1314.35 416.246C1320.23 422.444 1322.5 422.668 1327.93 418.866C1323.04 416.118 1322.05 421.997 1316.72 409.601C1322.08 414.904 1322.02 414.202 1328.57 410.208C1322.92 411.103 1321.76 410.08 1318.99 400.752C1323.39 406.726 1325.6 406.183 1329.05 405.256C1328.57 402.062 1322.12 404.969 1323.78 391.487C1325.02 397.078 1325.47 400.241 1329.62 399.122C1332.95 398.228 1323.91 395.448 1324.19 387.494C1325.69 390.049 1327.07 392.094 1330.17 392.222C1331.67 392.318 1331.8 384.618 1332.08 382.861C1333.3 391.519 1334.03 391.519 1337.83 387.43C1337.36 390.656 1335.79 391.487 1334.86 393.34C1333.84 395.321 1333.65 397.525 1333.65 400.432C1336.33 401.135 1338.79 397.876 1340.01 393.404C1340.01 399.314 1340.1 401.614 1334.35 407.684C1338.15 407.684 1341.19 403.787 1343.49 399.666C1342.59 406.375 1340.07 407.908 1334.9 413.754C1339.21 413.243 1341.32 412.604 1345.98 407.908C1342.05 417.62 1340.55 416.853 1335.47 419.952C1339.24 422.508 1343.14 423.403 1346.2 416.118C1344.74 425.447 1345.6 425.735 1338.03 429.217C1344.99 430.367 1344.26 430.463 1348.73 424.425C1345.92 434.073 1346.27 433.754 1337.99 437.651C1339.85 444.264 1347.26 448.705 1354.35 429.92C1351.99 448.481 1350.39 447.906 1339.97 451.101C1346.17 455.51 1356.11 453.082 1360.8 447.363C1353.49 459.599 1358.41 458.768 1344.16 464.743C1349.14 469.343 1353.33 469.567 1363.26 462.315C1358.06 473.72 1358.73 475.349 1346.59 481.196C1356.49 484.71 1355.79 482.793 1365.05 476.467C1359.81 484.742 1360.61 492.729 1346.97 494.198C1353.58 498.479 1360.13 497.585 1370.04 490.62C1368.76 487.361 1367.99 483.879 1367.55 480.173C1382.37 499.054 1381.47 499.565 1396.87 501.578C1378.54 491.738 1380.9 488.448 1378.22 473.688C1388.06 489.47 1386.08 493.016 1402.59 488.384C1387.61 482.026 1386.97 477.426 1382.02 463.944C1388.06 472.666 1397.51 482.473 1406.36 476.499C1397.48 465.957 1395.95 475.126 1382.66 452.059C1395.21 461.676 1402.98 463.273 1410.83 458.193C1395.95 456.596 1396.81 447.874 1391.09 438.865C1401.25 445.734 1400.45 447.81 1411.25 444.009C1397.99 437.619 1398.73 435.862 1393.07 423.403C1403.9 431.326 1408.47 431.07 1413.9 426.054C1398.34 419.537 1403.71 420.399 1395.76 407.077C1400.87 413.307 1411.7 415.991 1418.5 411.167C1407.1 407.652 1405.34 408.291 1402.78 388.037C1410.55 408.579 1418.63 403.723 1420.64 396.471C1411.63 392.222 1411.98 392.541 1408.92 382.062C1413.81 388.644 1413.01 388.548 1420.61 387.27C1412.34 383.468 1413.29 383.149 1411.67 372.989C1415.02 380.912 1419.27 379.954 1423.39 377.174C1417.83 373.788 1416.2 374.619 1411.92 364.012C1417 369.124 1419.33 369.858 1424.03 370.402C1418.37 364.012 1415.63 362.351 1414.64 355.035C1417.16 359.539 1420.45 363.788 1424.64 363.757C1418.34 357.175 1418.44 354.62 1418.44 348.198C1419.78 353.054 1422.43 356.664 1425.4 355.865C1425.37 352.671 1425.15 350.275 1424.06 348.102C1423.04 346.09 1421.35 345.195 1420.83 341.681C1424.96 346.121 1425.75 346.153 1427.1 336.697C1427.38 338.614 1427.54 346.984 1429.17 346.92C1432.59 346.76 1434.06 344.524 1435.72 341.745C1436.01 350.434 1426.14 353.469 1429.78 354.428C1434.32 355.674 1434.8 352.192 1436.14 346.121C1437.96 360.817 1430.93 357.655 1430.42 361.105C1434.16 362.159 1436.58 362.766 1441.38 356.217C1438.34 366.376 1437.1 367.526 1430.93 366.504C1438.05 370.881 1437.99 371.648 1443.87 365.897C1438.02 379.411 1436.97 372.989 1431.63 375.992C1437.57 380.114 1440.03 379.858 1446.46 373.117C1435.69 398.931 1430.67 379.986 1431.38 386.375C1437.67 391.455 1442.53 393.787 1449.27 384.586C1444.44 400.911 1440.23 396.535 1434.25 398.388C1442.14 402.988 1440.74 406.087 1449.52 396.343C1442.37 419.185 1441.12 407.684 1435.85 413.595C1451.54 415.895 1448.44 417.428 1456.33 404.969C1451.98 425 1450.8 422.093 1436.87 423.466C1439.01 429.473 1447.93 429.664 1459.75 421.677C1459.24 422.508 1458.76 423.275 1458.24 423.978C1466.36 433.147 1466.61 431.134 1476.55 429.313C1472.88 425.447 1467.86 429.6 1460.8 416.821C1469.81 423.466 1476.61 423.339 1478.24 418.323C1467.61 417.141 1466.74 419.569 1463.42 402.828C1469.43 413.275 1467.06 411.965 1479.04 410.048C1475.02 405.129 1474.06 414.713 1468.6 395.64C1475.3 403.787 1474.25 401.167 1480.29 397.365C1475.69 395.768 1472.46 399.474 1468.82 385.8C1473.96 393.5 1477.64 391.551 1482.43 387.302C1482.97 381.967 1479.14 397.813 1470.93 376.216C1475.85 381.871 1477.73 382.062 1482.27 378.644C1478.18 376.12 1477.38 381.487 1472.91 370.178C1477.41 375.002 1477.35 374.363 1482.78 370.721C1478.08 371.552 1477.13 370.593 1474.83 362.095C1478.47 367.558 1480.32 367.047 1483.2 366.185C1482.81 363.309 1477.41 365.929 1478.82 353.661C1479.84 358.741 1480.19 361.648 1483.67 360.626C1486.45 359.795 1478.91 357.271 1479.14 350.019C1480.42 352.351 1481.53 354.172 1484.12 354.332C1485.4 354.396 1485.5 347.367 1485.72 345.77C1486.74 353.693 1487.35 353.693 1490.51 349.955C1490.1 352.894 1488.82 353.629 1488.02 355.322C1487.19 357.143 1487.03 359.156 1487.03 361.808C1489.27 362.479 1491.31 359.476 1492.33 355.386C1492.3 360.785 1492.4 362.894 1487.6 368.421C1490.8 368.421 1493.29 364.875 1495.21 361.105C1494.47 367.207 1492.36 368.613 1488.05 373.98C1491.66 373.501 1493.42 372.894 1497.28 368.613C1494.03 377.462 1492.78 376.791 1488.56 379.602C1491.69 381.935 1494.92 382.733 1497.48 376.12C1496.26 384.618 1497 384.874 1490.67 388.069C1496.45 389.123 1495.85 389.187 1499.58 383.692C1497.25 392.477 1497.54 392.19 1490.64 395.736C1492.17 401.806 1498.34 405.831 1504.28 388.676C1502.3 405.608 1500.99 405.097 1492.3 408.036C1497.48 412.061 1505.75 409.793 1509.65 404.585C1503.55 415.767 1507.67 415.032 1495.78 420.463C1499.94 424.648 1503.42 424.84 1511.69 418.259C1507.38 428.674 1507.92 430.143 1497.83 435.479C1506.07 438.673 1505.46 436.916 1513.19 431.166C1508.82 438.673 1509.49 445.989 1498.12 447.299C1504.12 451.58 1510.06 450.207 1519.62 442.22C1509.49 461.484 1508.31 453.817 1501.53 462.634C1508.31 467.618 1515.53 459.407 1520.13 452.123C1519.04 455.318 1518.24 457.938 1517.38 460.142C1518.69 461.42 1519.94 462.634 1521.09 463.784C1521.66 462.698 1522.3 461.516 1523 460.27C1522.71 461.995 1522.49 463.561 1522.33 464.966C1524.44 466.979 1526.29 468.704 1527.99 470.142C1528.91 468.832 1529.97 467.33 1531.15 465.669C1530.93 467.842 1530.57 469.886 1530.06 471.835C1537.06 477.33 1540.83 477.042 1547.92 473.209C1536.1 468.704 1532.43 471.771 1522.14 449.216C1538.31 461.676 1531.21 458.481 1551.4 458.832C1550.92 451.964 1538.62 463.113 1528.27 437.715C1539.93 449.887 1540 447.363 1553.74 445.063C1548.78 440.271 1542.01 445.414 1532.49 429.664C1544.66 437.875 1553.83 437.683 1556.04 431.485C1541.66 430.08 1540.48 433.051 1536.01 412.381C1544.12 425.255 1540.92 423.69 1557.09 421.294C1551.69 415.224 1550.38 427.045 1543 403.499C1552.04 413.563 1550.64 410.368 1558.75 405.64C1552.59 403.691 1548.21 408.227 1543.29 391.391C1550.22 400.848 1555.21 398.483 1561.69 393.244C1562.43 386.631 1557.25 406.183 1546.16 379.571C1552.78 386.535 1555.33 386.791 1561.47 382.542C1555.94 379.443 1554.85 386.056 1548.85 372.127C1554.89 378.069 1554.82 377.27 1562.17 372.766C1555.81 373.82 1554.53 372.638 1551.4 362.127C1556.36 368.868 1558.85 368.261 1562.71 367.207C1562.2 363.629 1554.92 366.919 1556.8 351.744C1558.21 358.006 1558.66 361.584 1563.35 360.306C1567.12 359.316 1556.93 356.185 1557.25 347.24C1558.94 350.115 1560.48 352.383 1563.99 352.575C1565.65 352.639 1565.81 344.013 1566.13 342.032C1567.51 351.776 1568.34 351.776 1572.58 347.176C1572.04 350.818 1570.28 351.712 1569.23 353.789C1568.11 356.025 1567.92 358.485 1567.89 361.776C1570.92 362.606 1573.67 358.9 1575.04 353.885C1575.04 360.53 1575.14 363.149 1568.69 369.954C1572.97 369.954 1576.39 365.578 1578.97 360.913C1577.95 368.453 1575.11 370.178 1569.29 376.791C1574.15 376.216 1576.55 375.481 1581.75 370.21C1577.35 381.136 1575.65 380.273 1569.93 383.724C1574.18 386.631 1578.56 387.621 1582.04 379.443C1580.35 389.922 1581.34 390.241 1572.81 394.171C1580.64 395.48 1579.81 395.576 1584.85 388.803C1581.69 399.602 1582.07 399.282 1572.78 403.659C1574.85 411.103 1583.19 416.118 1591.21 394.937C1588.53 415.831 1586.74 415.192 1575.01 418.802C1578.69 421.422 1583.57 421.901 1588.11 420.783L1587.86 420.368L1588.37 420.719C1592.3 419.729 1596 417.556 1598.43 414.553C1595.65 419.217 1594.47 422.189 1593.45 424.361C1604.95 431.933 1612.81 432.667 1620.76 427.492C1603.41 425.639 1604.4 415.448 1597.7 404.937C1609.55 412.988 1608.65 415.416 1621.24 410.943C1605.78 403.499 1606.61 401.455 1600.03 386.918C1612.68 396.119 1617.98 395.864 1624.34 390.017C1606.19 382.414 1612.46 383.404 1603.16 367.814C1609.1 375.098 1621.78 378.229 1629.71 372.638C1616.42 368.517 1614.37 369.251 1611.34 345.61C1620.44 369.571 1629.87 363.916 1632.2 355.45C1621.69 350.498 1622.1 350.882 1618.56 338.646C1624.24 346.313 1623.32 346.217 1632.17 344.716C1622.49 340.275 1623.64 339.892 1621.75 328.039C1625.65 337.304 1630.6 336.154 1635.43 332.927C1628.94 328.966 1627.02 329.956 1622.04 317.592C1627.95 323.535 1630.67 324.397 1636.16 325.036C1629.58 317.56 1626.35 315.612 1625.2 307.082C1628.14 312.321 1631.98 317.305 1636.86 317.305C1629.52 309.574 1629.64 306.602 1629.64 299.095C1631.21 304.781 1634.31 308.966 1637.76 308.04C1637.73 304.334 1637.5 301.523 1636.19 298.999C1635.01 296.635 1633.03 295.612 1632.42 291.491C1637.25 296.699 1638.17 296.699 1639.74 285.677C1640.09 287.913 1640.25 297.689 1642.17 297.625C1646.16 297.401 1647.85 294.846 1649.8 291.555C1650.15 301.714 1638.62 305.261 1642.87 306.379C1648.17 307.816 1648.72 303.759 1650.31 296.667C1652.42 313.854 1644.21 310.149 1643.6 314.174C1647.98 315.388 1650.82 316.091 1656.42 308.455C1652.87 320.34 1651.43 321.65 1644.21 320.5C1652.55 325.579 1652.49 326.474 1659.32 319.765C1652.52 335.547 1651.27 328.039 1645.01 331.553C1651.97 336.377 1654.85 336.09 1662.36 328.199C1649.8 358.325 1643.96 336.186 1644.75 343.693C1652.1 349.604 1657.76 352.319 1665.62 341.585C1660.03 360.658 1655.07 355.514 1648.08 357.718C1657.31 363.054 1655.68 366.696 1665.94 355.29C1657.6 381.967 1656.13 368.549 1649.96 375.449C1668.27 378.133 1664.66 379.922 1673.86 365.354C1668.78 388.771 1667.44 385.385 1651.18 386.982C1653.67 394.011 1664.08 394.202 1677.85 384.906C1667.05 402.764 1659.35 396.95 1653.76 402.381C1669.35 404.969 1669.39 407.844 1682.61 394.043C1670.86 422.796 1656.96 410.144 1656.42 417.971C1679.29 417.556 1671.27 421.198 1689.58 407.077C1677.88 432.603 1673.73 429.121 1660.34 434.233C1672.33 440.686 1675.9 438.258 1695.58 418.802C1676.19 458.609 1677.34 447.587 1665.46 451.708C1669.23 452.379 1672.52 452.986 1675.52 453.305C1678.43 452.539 1681.33 452.571 1684.34 453.178C1689.32 452.187 1693.7 449.312 1698.71 442.986C1698.36 442.252 1698.01 441.485 1697.63 440.686L1699.42 442.092C1700.92 440.111 1702.48 437.875 1704.11 435.255C1703.67 438.673 1703.09 441.708 1702.42 444.456C1712.04 452.059 1708.81 449.695 1726.03 450.015C1725.55 443.338 1713.63 454.136 1703.57 429.505C1714.91 441.325 1714.97 438.865 1728.3 436.661C1723.51 432.028 1716.92 437.012 1707.69 421.677C1719.48 429.664 1728.36 429.473 1730.5 423.466C1716.6 422.093 1715.42 425 1711.11 404.969C1718.97 417.428 1715.87 415.895 1731.56 413.595C1726.28 407.684 1725.04 419.185 1717.88 396.343C1726.67 406.087 1725.26 402.988 1733.19 398.388C1727.18 396.535 1722.96 400.911 1718.17 384.586C1724.88 393.787 1729.73 391.455 1736.03 386.375C1736.73 379.986 1731.72 398.931 1720.95 373.117C1727.37 379.858 1729.86 380.114 1735.8 375.992C1730.44 372.989 1729.38 379.411 1723.54 365.897C1729.42 371.648 1729.35 370.881 1736.48 366.504C1730.31 367.526 1729.06 366.376 1726.03 356.217C1730.82 362.766 1733.25 362.159 1736.99 361.105C1736.51 357.655 1729.45 360.817 1731.27 346.121C1732.61 352.192 1733.09 355.674 1737.63 354.428C1741.27 353.469 1731.4 350.434 1731.68 341.745C1733.34 344.524 1734.85 346.76 1738.23 346.92C1739.86 346.984 1740.02 338.614 1740.31 336.697C1741.65 346.153 1742.45 346.121 1746.57 341.681C1746.06 345.195 1744.37 346.09 1743.34 348.102C1742.26 350.275 1742.03 352.671 1742 355.865C1744.97 356.664 1747.63 353.054 1748.97 348.198C1748.94 354.62 1749.06 357.175 1742.77 363.757C1746.95 363.788 1750.28 359.539 1752.77 355.035C1751.78 362.351 1749.03 364.012 1743.41 370.402C1748.07 369.858 1750.44 369.124 1755.48 364.012C1751.2 374.619 1749.57 373.788 1744.02 377.174C1748.14 379.954 1752.35 380.912 1755.74 372.989C1754.11 383.149 1755.07 383.468 1746.79 387.27C1754.4 388.548 1753.6 388.644 1758.46 382.062C1755.42 392.541 1755.77 392.222 1746.76 396.471C1748.78 403.723 1756.86 408.579 1764.62 388.037C1762.07 408.291 1760.31 407.652 1748.9 411.167C1755.71 415.991 1766.57 413.307 1771.65 407.077C1763.69 420.399 1769.06 419.537 1753.5 426.054C1758.97 431.07 1763.5 431.326 1774.33 423.403C1768.68 435.862 1769.41 437.619 1756.16 444.009C1766.95 447.81 1766.15 445.734 1776.31 438.865C1770.6 447.874 1771.46 456.596 1756.57 458.193C1763.92 462.954 1771.17 461.835 1782.35 453.849L1781.3 450.973C1781.84 451.772 1782.42 452.571 1783.02 453.369C1783.57 452.954 1784.17 452.507 1784.75 452.091C1784.33 452.794 1783.95 453.433 1783.57 454.072C1790.05 462.538 1799.09 470.333 1807.65 464.583C1798.04 453.146 1796.38 463.081 1782 438.098C1795.58 448.481 1804.01 450.238 1812.51 444.712C1796.41 442.986 1797.3 433.53 1791.11 423.786C1802.13 431.23 1801.27 433.498 1812.96 429.377C1798.58 422.444 1799.38 420.527 1793.25 407.045C1805 415.607 1809.95 415.352 1815.83 409.921C1798.97 402.86 1804.81 403.787 1796.19 389.315C1801.71 396.087 1813.44 398.995 1820.82 393.787C1808.49 389.985 1806.57 390.656 1803.79 368.708C1812.19 390.944 1820.98 385.704 1823.15 377.845C1813.37 373.245 1813.76 373.596 1810.47 362.223C1815.74 369.347 1814.87 369.251 1823.09 367.878C1814.14 363.757 1815.16 363.405 1813.44 352.415C1817.08 360.977 1821.65 359.955 1826.12 356.92C1820.11 353.246 1818.33 354.172 1813.72 342.671C1819.19 348.198 1821.71 348.997 1826.82 349.604C1820.69 342.671 1817.72 340.85 1816.63 332.927C1819.35 337.815 1822.96 342.416 1827.46 342.416C1820.66 335.259 1820.79 332.512 1820.75 325.515C1822.22 330.819 1825.1 334.684 1828.29 333.822C1828.26 330.371 1828.07 327.784 1826.86 325.419C1825.74 323.247 1823.92 322.289 1823.34 318.455C1827.81 323.311 1828.71 323.311 1830.15 313.056C1830.43 315.132 1830.62 324.237 1832.41 324.142C1836.09 323.982 1837.69 321.554 1839.47 318.519C1839.79 327.943 1829.09 331.234 1833.02 332.288C1837.97 333.63 1838.48 329.86 1839.95 323.279C1841.9 339.221 1834.27 335.77 1833.72 339.508C1837.78 340.658 1840.43 341.297 1845.61 334.205C1842.32 345.259 1840.98 346.473 1834.3 345.387C1842.03 350.115 1841.97 350.946 1848.32 344.684C1841.97 359.348 1840.85 352.383 1835.03 355.674C1841.49 360.114 1844.17 359.859 1851.1 352.543C1839.47 380.497 1834.04 359.955 1834.78 366.919C1841.58 372.414 1846.85 374.906 1854.14 364.971C1848.96 382.669 1844.36 377.909 1837.88 379.922C1846.44 384.906 1844.94 388.26 1854.43 377.718C1846.69 402.445 1845.32 390.017 1839.63 396.407C1856.63 398.899 1853.28 400.56 1861.81 387.046C1857.11 408.739 1855.83 405.608 1840.75 407.109C1843.05 413.563 1852.54 413.818 1865.16 405.416V405.736C1855.32 421.645 1848.29 416.406 1843.15 421.39C1855.45 423.434 1857.33 425.671 1865.16 418.419V422.923C1855.58 437.364 1846.06 429.664 1845.61 435.862C1859.31 435.606 1861.07 436.916 1865.16 434.361V444.073C1860.72 448.162 1856.41 448.226 1849.28 450.973C1855.7 454.424 1859.51 455.126 1865.16 451.58V464.487C1861.9 466.819 1859.41 465.318 1853.98 467.203C1858.26 467.969 1861.9 468.608 1865.16 468.832V484.902C1863.37 485.381 1861.71 485.828 1860.21 486.467C1862 486.659 1863.63 486.818 1865.16 486.978V827.986H0Z" fill="#273456"/>
</g>
<mask id="mask11_303_7910" style="mask-type:luminance" maskUnits="userSpaceOnUse" x="0" y="658" width="1866" height="170">
<path d="M0 658.471H1865.16V827.985H0V658.471Z" fill="white"/>
</mask>
<g mask="url(#mask11_303_7910)">
<path fill-rule="evenodd" clip-rule="evenodd" d="M0 701.473C95.5231 753.707 147.853 632.051 235.741 694.349C285.898 729.874 360.4 648.632 388.897 690.515C389.76 691.793 419.822 736.008 470.076 733.165C528.763 708.757 495.698 811.277 613.233 720.641C650.42 691.921 653.774 725.945 697.734 737.286C766.709 755.113 822.681 778.626 869.132 745.465C931.079 701.249 1010.5 752.972 1063.98 742.43C1143.98 726.648 1178.26 642.306 1262.02 701.728C1297.26 726.68 1323.75 733.836 1399.46 733.836C1428.69 782.14 1601.91 682.209 1642.07 719.683C1698.3 772.109 1810.66 716.84 1865.16 660.58V827.985H0V701.473Z" fill="#222B46"/>
</g>
<defs>
<linearGradient id="paint0_linear_303_7910" x1="932.576" y1="827.995" x2="932.576" y2="-0.00523138" gradientUnits="userSpaceOnUse">
<stop stop-color="#75A1DB"/>
<stop offset="0.03125" stop-color="#75A1DB"/>
<stop offset="0.046875" stop-color="#75A1DB"/>
<stop offset="0.0546875" stop-color="#75A1DB"/>
<stop offset="0.0625" stop-color="#75A2DB"/>
<stop offset="0.0664062" stop-color="#76A2DC"/>
<stop offset="0.0703125" stop-color="#76A2DC"/>
<stop offset="0.078125" stop-color="#76A2DC"/>
<stop offset="0.0859375" stop-color="#77A3DC"/>
<stop offset="0.09375" stop-color="#77A3DC"/>
<stop offset="0.101562" stop-color="#78A4DC"/>
<stop offset="0.109375" stop-color="#78A4DC"/>
<stop offset="0.117188" stop-color="#79A4DD"/>
<stop offset="0.125" stop-color="#79A5DD"/>
<stop offset="0.132812" stop-color="#79A5DD"/>
<stop offset="0.140625" stop-color="#7AA6DD"/>
<stop offset="0.148438" stop-color="#7AA6DE"/>
<stop offset="0.15625" stop-color="#7BA7DE"/>
<stop offset="0.164063" stop-color="#7BA7DE"/>
<stop offset="0.171875" stop-color="#7BA8DE"/>
<stop offset="0.1875" stop-color="#7CA8DE"/>
<stop offset="0.195312" stop-color="#7DA9DF"/>
<stop offset="0.203125" stop-color="#7DA9DF"/>
<stop offset="0.21875" stop-color="#7EAADF"/>
<stop offset="0.226562" stop-color="#7FABDF"/>
<stop offset="0.234375" stop-color="#7FABE0"/>
<stop offset="0.25" stop-color="#80ACE0"/>
<stop offset="0.257812" stop-color="#81ADE0"/>
<stop offset="0.265625" stop-color="#81ADE1"/>
<stop offset="0.269531" stop-color="#82ADE1"/>
<stop offset="0.273438" stop-color="#82AEE1"/>
<stop offset="0.28125" stop-color="#83AEE1"/>
<stop offset="0.289062" stop-color="#83AEE1"/>
<stop offset="0.296875" stop-color="#83AFE1"/>
<stop offset="0.304688" stop-color="#84AFE2"/>
<stop offset="0.3125" stop-color="#84B0E2"/>
<stop offset="0.320312" stop-color="#85B0E2"/>
<stop offset="0.328125" stop-color="#85B1E2"/>
<stop offset="0.335938" stop-color="#86B1E2"/>
<stop offset="0.34375" stop-color="#86B2E3"/>
<stop offset="0.351562" stop-color="#87B2E3"/>
<stop offset="0.359375" stop-color="#87B2E3"/>
<stop offset="0.367188" stop-color="#88B2E3"/>
<stop offset="0.375" stop-color="#88B3E3"/>
<stop offset="0.390625" stop-color="#89B4E4"/>
<stop offset="0.398438" stop-color="#8AB4E4"/>
<stop offset="0.40625" stop-color="#8AB4E4"/>
<stop offset="0.421875" stop-color="#8BB5E4"/>
<stop offset="0.429688" stop-color="#8CB5E4"/>
<stop offset="0.4375" stop-color="#8CB6E4"/>
<stop offset="0.445312" stop-color="#8CB6E5"/>
<stop offset="0.453125" stop-color="#8CB7E5"/>
<stop offset="0.46875" stop-color="#8DB7E5"/>
<stop offset="0.476562" stop-color="#8EB8E5"/>
<stop offset="0.484375" stop-color="#8EB8E5"/>
<stop offset="0.492187" stop-color="#8FB9E6"/>
<stop offset="0.5" stop-color="#8FB9E6"/>
<stop offset="0.507812" stop-color="#90B9E6"/>
<stop offset="0.515625" stop-color="#90BAE6"/>
<stop offset="0.523438" stop-color="#91BAE6"/>
<stop offset="0.53125" stop-color="#91BBE7"/>
<stop offset="0.539062" stop-color="#92BBE7"/>
<stop offset="0.546875" stop-color="#92BCE7"/>
<stop offset="0.5625" stop-color="#93BCE7"/>
<stop offset="0.570312" stop-color="#93BCE7"/>
<stop offset="0.578125" stop-color="#94BDE8"/>
<stop offset="0.585938" stop-color="#94BDE8"/>
<stop offset="0.59375" stop-color="#94BEE8"/>
<stop offset="0.609375" stop-color="#95BEE8"/>
<stop offset="0.613281" stop-color="#96BFE8"/>
<stop offset="0.617188" stop-color="#96BFE8"/>
<stop offset="0.625" stop-color="#97BFE9"/>
<stop offset="0.632812" stop-color="#97C0E9"/>
<stop offset="0.640625" stop-color="#98C0E9"/>
<stop offset="0.648438" stop-color="#98C0E9"/>
<stop offset="0.65625" stop-color="#99C1E9"/>
<stop offset="0.664062" stop-color="#99C1EA"/>
<stop offset="0.671875" stop-color="#9AC2EA"/>
<stop offset="0.6875" stop-color="#9AC2EA"/>
<stop offset="0.695313" stop-color="#9AC3EA"/>
<stop offset="0.703125" stop-color="#9BC3EA"/>
<stop offset="0.710938" stop-color="#9BC4EB"/>
<stop offset="0.71875" stop-color="#9CC4EB"/>
<stop offset="0.726562" stop-color="#9CC5EB"/>
<stop offset="0.734375" stop-color="#9DC5EB"/>
<stop offset="0.742188" stop-color="#9DC6EB"/>
<stop offset="0.75" stop-color="#9EC6EC"/>
<stop offset="0.757812" stop-color="#9EC6EC"/>
<stop offset="0.765625" stop-color="#9FC6EC"/>
<stop offset="0.773438" stop-color="#9FC7EC"/>
<stop offset="0.78125" stop-color="#9FC7EC"/>
<stop offset="0.789062" stop-color="#9FC8EC"/>
<stop offset="0.796875" stop-color="#A0C8EC"/>
<stop offset="0.804688" stop-color="#A0C8ED"/>
<stop offset="0.8125" stop-color="#A0C9ED"/>
<stop offset="0.820312" stop-color="#A1C9ED"/>
<stop offset="0.828125" stop-color="#A1CAED"/>
<stop offset="0.835938" stop-color="#A2CAED"/>
<stop offset="0.84375" stop-color="#A2CAED"/>
<stop offset="0.859375" stop-color="#A3CBEE"/>
<stop offset="0.863281" stop-color="#A3CBEE"/>
<stop offset="0.867188" stop-color="#A4CCEE"/>
<stop offset="0.875" stop-color="#A4CCEE"/>
<stop offset="0.882812" stop-color="#A4CCEE"/>
<stop offset="0.890625" stop-color="#A5CDEE"/>
<stop offset="0.898438" stop-color="#A5CDEE"/>
<stop offset="0.90625" stop-color="#A6CDEF"/>
<stop offset="0.921875" stop-color="#A6CEEF"/>
<stop offset="0.9375" stop-color="#A7CEEF"/>
<stop offset="0.945312" stop-color="#A7CFEF"/>
<stop offset="0.953125" stop-color="#A8D0F0"/>
<stop offset="0.96875" stop-color="#A8D0F0"/>
<stop offset="1" stop-color="#A8D0F0"/>
</linearGradient>
<linearGradient id="paint1_linear_303_7910" x1="1086.77" y1="827.993" x2="1086.77" y2="169.862" gradientUnits="userSpaceOnUse">
<stop stop-color="#5681BC"/>
<stop offset="0.015625" stop-color="#5682BC"/>
<stop offset="0.03125" stop-color="#5682BC"/>
<stop offset="0.046875" stop-color="#5683BD"/>
<stop offset="0.0625" stop-color="#5783BD"/>
<stop offset="0.078125" stop-color="#5784BE"/>
<stop offset="0.09375" stop-color="#5784BE"/>
<stop offset="0.109375" stop-color="#5885BF"/>
<stop offset="0.125" stop-color="#5885BF"/>
<stop offset="0.140625" stop-color="#5986C0"/>
<stop offset="0.15625" stop-color="#5986C1"/>
<stop offset="0.1875" stop-color="#5A87C1"/>
<stop offset="0.195313" stop-color="#5A87C2"/>
<stop offset="0.203125" stop-color="#5B88C3"/>
<stop offset="0.210938" stop-color="#5B88C3"/>
<stop offset="0.21875" stop-color="#5C89C3"/>
<stop offset="0.234375" stop-color="#5C89C3"/>
<stop offset="0.25" stop-color="#5C89C3"/>
<stop offset="0.265625" stop-color="#5C8AC4"/>
<stop offset="0.28125" stop-color="#5D8AC5"/>
<stop offset="0.296875" stop-color="#5D8BC5"/>
<stop offset="0.3125" stop-color="#5E8BC5"/>
<stop offset="0.328125" stop-color="#5E8CC6"/>
<stop offset="0.34375" stop-color="#5F8CC6"/>
<stop offset="0.359375" stop-color="#5F8DC7"/>
<stop offset="0.375" stop-color="#608DC7"/>
<stop offset="0.390625" stop-color="#608EC8"/>
<stop offset="0.40625" stop-color="#618EC8"/>
<stop offset="0.414063" stop-color="#618FC9"/>
<stop offset="0.421875" stop-color="#6190C9"/>
<stop offset="0.4375" stop-color="#6290CA"/>
<stop offset="0.46875" stop-color="#6391CA"/>
<stop offset="0.484375" stop-color="#6391CB"/>
<stop offset="0.5" stop-color="#6492CC"/>
<stop offset="0.515625" stop-color="#6492CC"/>
<stop offset="0.53125" stop-color="#6493CD"/>
<stop offset="0.539063" stop-color="#6593CD"/>
<stop offset="0.546875" stop-color="#6593CD"/>
<stop offset="0.5625" stop-color="#6694CD"/>
<stop offset="0.578125" stop-color="#6694CE"/>
<stop offset="0.59375" stop-color="#6795CE"/>
<stop offset="0.601562" stop-color="#6795CF"/>
<stop offset="0.609375" stop-color="#6795CF"/>
<stop offset="0.625" stop-color="#6896D0"/>
<stop offset="0.640625" stop-color="#6896D0"/>
<stop offset="0.65625" stop-color="#6997D0"/>
<stop offset="0.671875" stop-color="#6997D1"/>
<stop offset="0.6875" stop-color="#6A98D1"/>
<stop offset="0.703125" stop-color="#6A98D2"/>
<stop offset="0.71875" stop-color="#6A99D2"/>
<stop offset="0.75" stop-color="#6B99D3"/>
<stop offset="0.765625" stop-color="#6B9AD3"/>
<stop offset="0.773438" stop-color="#6C9BD4"/>
<stop offset="0.78125" stop-color="#6C9BD4"/>
<stop offset="0.796875" stop-color="#6D9BD5"/>
<stop offset="0.8125" stop-color="#6D9CD5"/>
<stop offset="0.828125" stop-color="#6E9DD6"/>
<stop offset="0.84375" stop-color="#6E9ED6"/>
<stop offset="0.859375" stop-color="#6F9ED6"/>
<stop offset="0.875" stop-color="#6F9ED7"/>
<stop offset="0.890625" stop-color="#709FD7"/>
<stop offset="0.90625" stop-color="#709FD8"/>
<stop offset="0.9375" stop-color="#71A0D8"/>
<stop offset="0.953125" stop-color="#71A0D9"/>
<stop offset="0.960938" stop-color="#72A1DA"/>
<stop offset="0.96875" stop-color="#72A1DA"/>
<stop offset="0.984375" stop-color="#73A2DA"/>
<stop offset="1" stop-color="#73A2DB"/>
</linearGradient>
<linearGradient id="paint2_linear_303_7910" x1="778.384" y1="827.993" x2="778.384" y2="169.862" gradientUnits="userSpaceOnUse">
<stop stop-color="#5681BC"/>
<stop offset="0.015625" stop-color="#5682BC"/>
<stop offset="0.03125" stop-color="#5682BC"/>
<stop offset="0.046875" stop-color="#5683BD"/>
<stop offset="0.0625" stop-color="#5783BD"/>
<stop offset="0.078125" stop-color="#5784BE"/>
<stop offset="0.09375" stop-color="#5784BE"/>
<stop offset="0.109375" stop-color="#5885BF"/>
<stop offset="0.125" stop-color="#5885BF"/>
<stop offset="0.140625" stop-color="#5986C0"/>
<stop offset="0.15625" stop-color="#5986C1"/>
<stop offset="0.1875" stop-color="#5A87C1"/>
<stop offset="0.195313" stop-color="#5A87C2"/>
<stop offset="0.203125" stop-color="#5B88C3"/>
<stop offset="0.210938" stop-color="#5B88C3"/>
<stop offset="0.21875" stop-color="#5C89C3"/>
<stop offset="0.234375" stop-color="#5C89C3"/>
<stop offset="0.25" stop-color="#5C89C3"/>
<stop offset="0.265625" stop-color="#5C8AC4"/>
<stop offset="0.28125" stop-color="#5D8AC5"/>
<stop offset="0.296875" stop-color="#5D8BC5"/>
<stop offset="0.3125" stop-color="#5E8BC5"/>
<stop offset="0.328125" stop-color="#5E8CC6"/>
<stop offset="0.34375" stop-color="#5F8CC6"/>
<stop offset="0.359375" stop-color="#5F8DC7"/>
<stop offset="0.375" stop-color="#608DC7"/>
<stop offset="0.390625" stop-color="#608EC8"/>
<stop offset="0.40625" stop-color="#618EC8"/>
<stop offset="0.414063" stop-color="#618FC9"/>
<stop offset="0.421875" stop-color="#6190C9"/>
<stop offset="0.4375" stop-color="#6290CA"/>
<stop offset="0.46875" stop-color="#6391CA"/>
<stop offset="0.484375" stop-color="#6391CB"/>
<stop offset="0.5" stop-color="#6492CC"/>
<stop offset="0.515625" stop-color="#6492CC"/>
<stop offset="0.53125" stop-color="#6493CD"/>
<stop offset="0.539062" stop-color="#6593CD"/>
<stop offset="0.546875" stop-color="#6593CD"/>
<stop offset="0.5625" stop-color="#6694CD"/>
<stop offset="0.578125" stop-color="#6694CE"/>
<stop offset="0.59375" stop-color="#6795CE"/>
<stop offset="0.601562" stop-color="#6795CF"/>
<stop offset="0.609375" stop-color="#6795CF"/>
<stop offset="0.625" stop-color="#6896D0"/>
<stop offset="0.640625" stop-color="#6896D0"/>
<stop offset="0.65625" stop-color="#6997D0"/>
<stop offset="0.671875" stop-color="#6997D1"/>
<stop offset="0.6875" stop-color="#6A98D1"/>
<stop offset="0.703125" stop-color="#6A98D2"/>
<stop offset="0.71875" stop-color="#6A99D2"/>
<stop offset="0.75" stop-color="#6B99D3"/>
<stop offset="0.765625" stop-color="#6B9AD3"/>
<stop offset="0.773438" stop-color="#6C9BD4"/>
<stop offset="0.78125" stop-color="#6C9BD4"/>
<stop offset="0.796875" stop-color="#6D9BD5"/>
<stop offset="0.8125" stop-color="#6D9CD5"/>
<stop offset="0.828125" stop-color="#6E9DD6"/>
<stop offset="0.84375" stop-color="#6E9ED6"/>
<stop offset="0.859375" stop-color="#6F9ED6"/>
<stop offset="0.875" stop-color="#6F9ED7"/>
<stop offset="0.890625" stop-color="#709FD7"/>
<stop offset="0.90625" stop-color="#709FD8"/>
<stop offset="0.9375" stop-color="#71A0D8"/>
<stop offset="0.953125" stop-color="#71A0D9"/>
<stop offset="0.960938" stop-color="#72A1DA"/>
<stop offset="0.96875" stop-color="#72A1DA"/>
<stop offset="0.984375" stop-color="#73A2DA"/>
<stop offset="1" stop-color="#73A2DB"/>
</linearGradient>
<linearGradient id="paint3_linear_303_7910" x1="932.579" y1="827.993" x2="932.579" y2="169.862" gradientUnits="userSpaceOnUse">
<stop stop-color="#3A5A99"/>
<stop offset="0.015625" stop-color="#3A5A99"/>
<stop offset="0.0234375" stop-color="#3B5A99"/>
<stop offset="0.03125" stop-color="#3B5B9A"/>
<stop offset="0.046875" stop-color="#3B5B9B"/>
<stop offset="0.0625" stop-color="#3C5C9C"/>
<stop offset="0.0703125" stop-color="#3D5C9C"/>
<stop offset="0.078125" stop-color="#3D5D9C"/>
<stop offset="0.0859375" stop-color="#3D5D9D"/>
<stop offset="0.09375" stop-color="#3D5E9D"/>
<stop offset="0.109375" stop-color="#3D5E9E"/>
<stop offset="0.125" stop-color="#3E5F9F"/>
<stop offset="0.15625" stop-color="#3F5F9F"/>
<stop offset="0.164062" stop-color="#3F60A0"/>
<stop offset="0.171875" stop-color="#3F61A1"/>
<stop offset="0.1875" stop-color="#4061A1"/>
<stop offset="0.195312" stop-color="#4062A2"/>
<stop offset="0.203125" stop-color="#4163A3"/>
<stop offset="0.21875" stop-color="#4163A3"/>
<stop offset="0.226562" stop-color="#4163A3"/>
<stop offset="0.234375" stop-color="#4163A4"/>
<stop offset="0.242187" stop-color="#4164A4"/>
<stop offset="0.25" stop-color="#4264A5"/>
<stop offset="0.265625" stop-color="#4265A5"/>
<stop offset="0.28125" stop-color="#4265A5"/>
<stop offset="0.296875" stop-color="#4366A6"/>
<stop offset="0.3125" stop-color="#4366A7"/>
<stop offset="0.320312" stop-color="#4467A8"/>
<stop offset="0.328125" stop-color="#4468A8"/>
<stop offset="0.335938" stop-color="#4468A9"/>
<stop offset="0.34375" stop-color="#4569A9"/>
<stop offset="0.359375" stop-color="#4569A9"/>
<stop offset="0.375" stop-color="#4669AA"/>
<stop offset="0.382812" stop-color="#466AAA"/>
<stop offset="0.390625" stop-color="#466BAB"/>
<stop offset="0.398438" stop-color="#466BAC"/>
<stop offset="0.40625" stop-color="#476CAC"/>
<stop offset="0.421875" stop-color="#476CAC"/>
<stop offset="0.4375" stop-color="#476CAD"/>
<stop offset="0.445312" stop-color="#486DAE"/>
<stop offset="0.453125" stop-color="#486DAE"/>
<stop offset="0.460938" stop-color="#496EAE"/>
<stop offset="0.46875" stop-color="#496EAF"/>
<stop offset="0.476562" stop-color="#496FAF"/>
<stop offset="0.484375" stop-color="#496FB0"/>
<stop offset="0.5" stop-color="#496FB0"/>
<stop offset="0.515625" stop-color="#4A70B0"/>
<stop offset="0.523438" stop-color="#4A70B1"/>
<stop offset="0.53125" stop-color="#4A70B1"/>
<stop offset="0.546875" stop-color="#4B71B2"/>
<stop offset="0.5625" stop-color="#4B72B3"/>
<stop offset="0.578125" stop-color="#4B73B3"/>
<stop offset="0.585938" stop-color="#4C73B4"/>
<stop offset="0.59375" stop-color="#4C73B4"/>
<stop offset="0.601563" stop-color="#4D74B5"/>
<stop offset="0.609375" stop-color="#4D74B5"/>
<stop offset="0.617187" stop-color="#4D75B6"/>
<stop offset="0.625" stop-color="#4D75B7"/>
<stop offset="0.632812" stop-color="#4D76B7"/>
<stop offset="0.640625" stop-color="#4E76B7"/>
<stop offset="0.65625" stop-color="#4E77B8"/>
<stop offset="0.671875" stop-color="#4E77B8"/>
<stop offset="0.6875" stop-color="#4F78B9"/>
<stop offset="0.703125" stop-color="#5078B9"/>
<stop offset="0.710938" stop-color="#5079BA"/>
<stop offset="0.71875" stop-color="#5079BA"/>
<stop offset="0.734375" stop-color="#507ABB"/>
<stop offset="0.742188" stop-color="#517ABB"/>
<stop offset="0.75" stop-color="#517BBC"/>
<stop offset="0.757813" stop-color="#527BBC"/>
<stop offset="0.765625" stop-color="#527BBD"/>
<stop offset="0.78125" stop-color="#527CBD"/>
<stop offset="0.8125" stop-color="#527DBE"/>
<stop offset="0.820312" stop-color="#537EBF"/>
<stop offset="0.828125" stop-color="#537EBF"/>
<stop offset="0.835938" stop-color="#547FC0"/>
<stop offset="0.84375" stop-color="#547FC0"/>
<stop offset="0.859375" stop-color="#557FC0"/>
<stop offset="0.867188" stop-color="#5580C1"/>
<stop offset="0.875" stop-color="#5580C1"/>
<stop offset="0.890625" stop-color="#5580C2"/>
<stop offset="0.898438" stop-color="#5681C3"/>
<stop offset="0.90625" stop-color="#5682C3"/>
<stop offset="0.914063" stop-color="#5683C4"/>
<stop offset="0.921875" stop-color="#5783C4"/>
<stop offset="0.9375" stop-color="#5783C4"/>
<stop offset="0.953125" stop-color="#5784C5"/>
<stop offset="0.96875" stop-color="#5884C5"/>
<stop offset="0.976562" stop-color="#5885C6"/>
<stop offset="0.984375" stop-color="#5885C6"/>
<stop offset="1" stop-color="#5985C7"/>
</linearGradient>
<linearGradient id="paint4_linear_303_7910" x1="932.576" y1="827.996" x2="932.576" y2="40.7549" gradientUnits="userSpaceOnUse">
<stop stop-color="#283F6F"/>
<stop offset="0.0625" stop-color="#283F6F"/>
<stop offset="0.09375" stop-color="#283F6F"/>
<stop offset="0.109375" stop-color="#283F6F"/>
<stop offset="0.117187" stop-color="#283F70"/>
<stop offset="0.125" stop-color="#284070"/>
<stop offset="0.140625" stop-color="#294071"/>
<stop offset="0.148438" stop-color="#294172"/>
<stop offset="0.15625" stop-color="#2A4172"/>
<stop offset="0.171875" stop-color="#2A4173"/>
<stop offset="0.179688" stop-color="#2A4274"/>
<stop offset="0.1875" stop-color="#2A4275"/>
<stop offset="0.195312" stop-color="#2A4275"/>
<stop offset="0.203125" stop-color="#2A4376"/>
<stop offset="0.210938" stop-color="#2B4376"/>
<stop offset="0.21875" stop-color="#2B4377"/>
<stop offset="0.226562" stop-color="#2B4477"/>
<stop offset="0.234375" stop-color="#2C4478"/>
<stop offset="0.242188" stop-color="#2C4479"/>
<stop offset="0.25" stop-color="#2C4579"/>
<stop offset="0.265625" stop-color="#2C457A"/>
<stop offset="0.273437" stop-color="#2D457A"/>
<stop offset="0.28125" stop-color="#2D467B"/>
<stop offset="0.289062" stop-color="#2D467B"/>
<stop offset="0.296875" stop-color="#2E477C"/>
<stop offset="0.304687" stop-color="#2E477C"/>
<stop offset="0.3125" stop-color="#2E477D"/>
<stop offset="0.320312" stop-color="#2F487D"/>
<stop offset="0.324219" stop-color="#2F487E"/>
<stop offset="0.328125" stop-color="#2F487F"/>
<stop offset="0.34375" stop-color="#2F487F"/>
<stop offset="0.351562" stop-color="#2F497F"/>
<stop offset="0.359375" stop-color="#304980"/>
<stop offset="0.367188" stop-color="#304980"/>
<stop offset="0.375" stop-color="#304A81"/>
<stop offset="0.390625" stop-color="#304A82"/>
<stop offset="0.398438" stop-color="#314A82"/>
<stop offset="0.402344" stop-color="#314B83"/>
<stop offset="0.40625" stop-color="#314B84"/>
<stop offset="0.414063" stop-color="#314B84"/>
<stop offset="0.421875" stop-color="#314C84"/>
<stop offset="0.4375" stop-color="#314C85"/>
<stop offset="0.445312" stop-color="#324C85"/>
<stop offset="0.453125" stop-color="#324D86"/>
<stop offset="0.46875" stop-color="#334D87"/>
<stop offset="0.476562" stop-color="#334E88"/>
<stop offset="0.484375" stop-color="#334E88"/>
<stop offset="0.492187" stop-color="#344E89"/>
<stop offset="0.5" stop-color="#344F89"/>
<stop offset="0.507812" stop-color="#344F8A"/>
<stop offset="0.515625" stop-color="#344F8A"/>
<stop offset="0.523438" stop-color="#344F8B"/>
<stop offset="0.53125" stop-color="#35508B"/>
<stop offset="0.539062" stop-color="#35508C"/>
<stop offset="0.546875" stop-color="#36518C"/>
<stop offset="0.5625" stop-color="#36518D"/>
<stop offset="0.570312" stop-color="#36518E"/>
<stop offset="0.578125" stop-color="#36528E"/>
<stop offset="0.585938" stop-color="#37528F"/>
<stop offset="0.59375" stop-color="#375390"/>
<stop offset="0.609375" stop-color="#375390"/>
<stop offset="0.617188" stop-color="#375391"/>
<stop offset="0.625" stop-color="#385492"/>
<stop offset="0.632812" stop-color="#385492"/>
<stop offset="0.640625" stop-color="#385593"/>
<stop offset="0.648438" stop-color="#395594"/>
<stop offset="0.65625" stop-color="#395594"/>
<stop offset="0.671875" stop-color="#395695"/>
<stop offset="0.679688" stop-color="#3A5695"/>
<stop offset="0.6875" stop-color="#3A5796"/>
<stop offset="0.695313" stop-color="#3A5797"/>
<stop offset="0.703125" stop-color="#3B5797"/>
<stop offset="0.710938" stop-color="#3B5797"/>
<stop offset="0.71875" stop-color="#3B5898"/>
<stop offset="0.726563" stop-color="#3B5898"/>
<stop offset="0.730469" stop-color="#3C5999"/>
<stop offset="0.734375" stop-color="#3C5999"/>
<stop offset="0.742188" stop-color="#3C599A"/>
<stop offset="0.75" stop-color="#3C599A"/>
<stop offset="0.765625" stop-color="#3D5A9B"/>
<stop offset="0.773438" stop-color="#3D5A9B"/>
<stop offset="0.777344" stop-color="#3D5A9C"/>
<stop offset="0.78125" stop-color="#3D5A9C"/>
<stop offset="0.796875" stop-color="#3E5B9D"/>
<stop offset="0.804688" stop-color="#3E5C9D"/>
<stop offset="0.8125" stop-color="#3F5C9E"/>
<stop offset="0.820312" stop-color="#3F5C9E"/>
<stop offset="0.828125" stop-color="#3F5D9F"/>
<stop offset="0.835938" stop-color="#3F5D9F"/>
<stop offset="0.84375" stop-color="#405DA0"/>
<stop offset="0.851562" stop-color="#405EA0"/>
<stop offset="0.855469" stop-color="#405EA0"/>
<stop offset="0.859375" stop-color="#405EA1"/>
<stop offset="0.867188" stop-color="#405FA1"/>
<stop offset="0.875" stop-color="#415FA2"/>
<stop offset="1" stop-color="#415FA2"/>
</linearGradient>
</defs>
</svg>
