<svg width="174" height="133" viewBox="0 0 174 133" fill="none" xmlns="http://www.w3.org/2000/svg">
<mask id="mask0_20_23" style="mask-type:luminance" maskUnits="userSpaceOnUse" x="0" y="0" width="149" height="72">
<path d="M0 0H148.891V71.6198H0V0Z" fill="white"/>
</mask>
<g mask="url(#mask0_20_23)">
<path d="M141.406 51.1614C140.578 51.6875 139.708 52.1302 138.797 52.4843C137.885 52.8385 136.948 53.1041 135.984 53.276C135.016 53.4427 134.047 53.5208 133.068 53.5C132.089 53.4791 131.12 53.3645 130.161 53.151C129.208 52.9427 128.281 52.6406 127.38 52.2447C126.484 51.8489 125.635 51.375 124.833 50.8125C124.031 50.25 123.286 49.6197 122.609 48.9114C121.932 48.2031 121.328 47.4375 120.802 46.6145C119.964 45.2916 119.042 44.026 118.042 42.8229C116.344 40.7916 114.448 38.9687 112.354 37.3541C110.255 35.7395 108.005 34.3697 105.609 33.25C103.208 32.1302 100.719 31.2864 98.1354 30.7135C95.5469 30.1406 92.9323 29.8593 90.2865 29.8645C90.1302 29.8645 89.9792 29.8645 89.8281 29.8645C87.375 29.8906 84.9531 30.1666 82.5625 30.6927C80.1667 31.2135 77.849 31.9739 75.6094 32.9687C73.3698 33.9635 71.2552 35.1718 69.2604 36.5989C67.2656 38.026 65.4375 39.6406 63.7708 41.4375C62.8438 42.5885 61.9115 43.7135 60.9896 44.8229C55.2188 51.7083 49.5521 57.6562 43.8333 62.1614C30.2604 72.875 16.375 75.5208 0.015625 63.4947C17.4323 57.3906 30.7344 22.1197 57.5365 8.72391C57.5365 8.72391 57.5365 8.72391 57.5521 8.72391C60.3073 7.14578 63.1667 5.77599 66.125 4.61453C69.0833 3.45307 72.1042 2.50516 75.1979 1.77599C78.2917 1.05203 81.4219 0.552032 84.5885 0.27599C87.7552 -5.23534e-05 90.9219 -0.0469267 94.0938 0.135365C97.2656 0.317657 100.411 0.723906 103.521 1.35932C106.635 1.99474 109.688 2.84891 112.677 3.92182C115.667 4.99995 118.562 6.2812 121.37 7.77599C124.172 9.27078 126.859 10.9583 129.417 12.8385C136.026 17.7187 141.536 23.6249 145.953 30.5572C146.479 31.3802 146.917 32.25 147.276 33.1666C147.63 34.0781 147.896 35.0156 148.068 35.9791C148.234 36.9427 148.312 37.9166 148.292 38.8958C148.271 39.875 148.156 40.8437 147.943 41.802C147.734 42.7552 147.432 43.6822 147.036 44.5781C146.646 45.4791 146.167 46.3281 145.604 47.1302C145.047 47.9322 144.411 48.6718 143.703 49.3541C143 50.0312 142.229 50.6354 141.406 51.1614Z" fill="#001730"/>
</g>
<mask id="mask1_20_23" style="mask-type:luminance" maskUnits="userSpaceOnUse" x="0" y="20" width="115" height="52">
<path d="M0 20.9531H114.224V71.6198H0V20.9531Z" fill="white"/>
</mask>
<g mask="url(#mask1_20_23)">
<path d="M113.922 38.6406C110.635 35.7969 106.958 33.6198 102.891 32.1094C98.8177 30.599 94.6094 29.849 90.2708 29.8594C90.1146 29.8594 89.9635 29.8594 89.8125 29.8594C87.3594 29.8854 84.9375 30.1615 82.5417 30.6875C80.151 31.2083 77.8333 31.9687 75.5938 32.9635C73.3542 33.9583 71.2344 35.1667 69.2448 36.5937C67.25 38.0208 65.4219 39.6302 63.7552 41.4323C62.8229 42.5781 61.8958 43.7083 60.974 44.8177C55.1979 51.7031 49.5365 57.651 43.8177 62.1562C30.2448 72.8698 16.3594 75.5156 0 63.4896C50.974 70.0729 62.0208 -13.099 113.922 38.6406Z" fill="#4AD7D1"/>
</g>
<mask id="mask2_20_23" style="mask-type:luminance" maskUnits="userSpaceOnUse" x="19" y="64" width="155" height="69">
<path d="M19.5574 64.9531H174V133H19.5574V64.9531Z" fill="white"/>
</mask>
<g mask="url(#mask2_20_23)">
<path d="M173.766 90.4688C155.396 92.4271 134.349 123.703 105.193 130.583H105.172C102.125 131.484 99.0261 132.162 95.8803 132.615C92.7345 133.063 89.573 133.292 86.3959 133.287C83.2188 133.281 80.0574 133.052 76.9167 132.594C73.7709 132.13 70.6772 131.448 67.6303 130.542C64.5834 129.635 61.6199 128.516 58.7345 127.182C55.8542 125.849 53.0782 124.318 50.4167 122.583C47.7553 120.849 45.2292 118.932 42.8438 116.833C40.4584 114.734 38.2345 112.474 36.172 110.057C30.8595 103.792 26.849 96.7813 24.1511 89.0209C23.4845 87.0938 21.099 79.7136 20.4011 74.8802C29.8699 76.4375 38.6459 73.0052 47.2917 66.2709C49.349 70.3282 51.3542 76.3802 52.3126 79.1823C52.8334 80.6615 53.4376 82.1094 54.1407 83.5157C55.323 85.8803 56.7501 88.0938 58.422 90.1459C60.0938 92.198 61.9636 94.0469 64.0417 95.6875C66.1199 97.3282 68.349 98.7188 70.7345 99.8698C73.1199 101.021 75.599 101.896 78.1772 102.5C78.323 102.537 78.474 102.573 78.6251 102.599C81.0157 103.135 83.4376 103.422 85.8855 103.464C88.3386 103.505 90.7657 103.297 93.172 102.844C95.5834 102.385 97.9167 101.693 100.182 100.766C102.453 99.8334 104.599 98.6823 106.635 97.3178C107.802 96.4115 108.969 95.5209 110.12 94.6511C117.318 89.2761 124.198 84.7865 130.792 81.7084C146.484 74.4063 160.604 75.0209 173.766 90.4688Z" fill="#001730"/>
</g>
<mask id="mask3_20_23" style="mask-type:luminance" maskUnits="userSpaceOnUse" x="56" y="76" width="118" height="39">
<path d="M56.8906 76.9531H174V114.286H56.8906V76.9531Z" fill="white"/>
</mask>
<g mask="url(#mask3_20_23)">
<path d="M57.1824 88.5208C59.724 92.0416 62.8074 95 66.422 97.4062C70.0365 99.8125 73.9584 101.51 78.1876 102.5C78.3334 102.531 78.4845 102.568 78.6355 102.599C81.0261 103.13 83.448 103.417 85.8959 103.458C88.349 103.5 90.7761 103.292 93.1824 102.839C95.5886 102.385 97.9272 101.693 100.193 100.76C102.464 99.8281 104.609 98.6823 106.646 97.3125C107.813 96.4062 108.974 95.5156 110.13 94.6458C117.328 89.2708 124.208 84.7812 130.802 81.7031C146.474 74.3906 160.594 75 173.755 90.4531C125.662 72.3802 95.8282 150.797 57.1824 88.5208Z" fill="#4AD7D1"/>
</g>
</svg>
